999
dxflib 2.2.0.0
  0
SECTION
  2
HEADER
  9
$ACADVER
  1
AC1009
  9
$DIMASZ
 40
2.5
  9
$PLIMMIN
 10
0.0
 20
0.0
  9
$DIMEXE
 40
1.25
  9
$DIMGAP
 40
0.625
  9
$PLIMMAX
 10
210.0
 20
297.0
  9
$DIMEXO
 40
0.625
  9
$DIMTXT
 40
2.5
  9
$CLAYER
  8
0
  0
ENDSEC
  0
SECTION
  2
TABLES
  0
TABLE
  2
VPORT
 70
1
  0
VPORT
  2
*Active
 70
0
 10
0.0
 20
0.0
 11
1.0
 21
1.0
 12
286.3055555555554861
 22
148.5
 13
0.0
 23
0.0
 14
10.0
 24
10.0
 15
10.0
 25
10.0
 16
0.0
 26
0.0
 36
1.0
 17
0.0
 27
0.0
 37
0.0
 40
297.0
 41
1.92798353909465
 42
50.0
 43
0.0
 44
0.0
 50
0.0
 51
0.0
 71
0
 72
100
 73
1
 74
3
 75
1
 76
1
 77
0
 78
0
  0
ENDTAB
  0
TABLE
  2
LTYPE
 70
19
  0
LTYPE
  2
CONTINUOUS
 70
0
  3
Solid line
 72
65
 73
0
 40
0.0
  0
LTYPE
  2
DOT
 70
0
  3
Dot . . . . . . . . . . . . . . . . . . . . . .
 72
65
 73
2
 40
6.3499999999999996
 49
0.0
 49
-6.3499999999999996
  0
LTYPE
  2
DOT2
 70
0
  3
Dot (.5x) .....................................
 72
65
 73
2
 40
3.1749999999999998
 49
0.0
 49
-3.1749999999999998
  0
LTYPE
  2
DOTX2
 70
0
  3
Dot (2x) .  .  .  .  .  .  .  .  .  .  .  .  .
 72
65
 73
2
 40
12.6999999999999993
 49
0.0
 49
-12.6999999999999993
  0
LTYPE
  2
DASHED
 70
0
  3
Dashed __ __ __ __ __ __ __ __ __ __ __ __ __ _
 72
65
 73
2
 40
19.0500000000000007
 49
12.6999999999999993
 49
-6.3499999999999996
  0
LTYPE
  2
DASHED2
 70
0
  3
Dashed (.5x) _ _ _ _ _ _ _ _ _ _ _ _ _ _ _ _ _
 72
65
 73
2
 40
9.5250000000000004
 49
6.3499999999999996
 49
-3.1749999999999998
  0
LTYPE
  2
DASHEDX2
 70
0
  3
Dashed (2x) ____  ____  ____  ____  ____  ___
 72
65
 73
2
 40
38.1000000000000014
 49
25.3999999999999986
 49
-12.6999999999999993
  0
LTYPE
  2
DASHDOT
 70
0
  3
Dash dot __ . __ . __ . __ . __ . __ . __ . __
 72
65
 73
4
 40
25.3999999999999986
 49
12.6999999999999993
 49
-6.3499999999999996
 49
0.0
 49
-6.3499999999999996
  0
LTYPE
  2
DASHDOT2
 70
0
  3
Dash dot (.5x) _._._._._._._._._._._._._._._.
 72
65
 73
4
 40
12.6999999999999993
 49
6.3499999999999996
 49
-3.1749999999999998
 49
0.0
 49
-3.1749999999999998
  0
LTYPE
  2
DASHDOTX2
 70
0
  3
Dash dot (2x) ____  .  ____  .  ____  .  ___
 72
65
 73
4
 40
50.7999999999999972
 49
25.3999999999999986
 49
-12.6999999999999993
 49
0.0
 49
-12.6999999999999993
  0
LTYPE
  2
DIVIDE
 70
0
  3
Divide ____ . . ____ . . ____ . . ____ . . ____
 72
65
 73
6
 40
31.75
 49
12.6999999999999993
 49
-6.3499999999999996
 49
0.0
 49
-6.3499999999999996
 49
0.0
 49
-6.3499999999999996
  0
LTYPE
  2
DIVIDE2
 70
0
  3
Divide (.5x) __..__..__..__..__..__..__..__.._
 72
65
 73
6
 40
15.875
 49
6.3499999999999996
 49
-3.1749999999999998
 49
0.0
 49
-3.1749999999999998
 49
0.0
 49
-3.1749999999999998
  0
LTYPE
  2
DIVIDEX2
 70
0
  3
Divide (2x) ________  .  .  ________  .  .  _
 72
65
 73
6
 40
63.5
 49
25.3999999999999986
 49
-12.6999999999999993
 49
0.0
 49
-12.6999999999999993
 49
0.0
 49
-12.6999999999999993
  0
LTYPE
  2
CENTER
 70
0
  3
Center ____ _ ____ _ ____ _ ____ _ ____ _ ____
 72
65
 73
4
 40
50.7999999999999972
 49
31.75
 49
-6.3499999999999996
 49
6.3499999999999996
 49
-6.3499999999999996
  0
LTYPE
  2
CENTER2
 70
0
  3
Center (.5x) ___ _ ___ _ ___ _ ___ _ ___ _ ___
 72
65
 73
4
 40
28.5749999999999993
 49
19.0500000000000007
 49
-3.1749999999999998
 49
3.1749999999999998
 49
-3.1749999999999998
  0
LTYPE
  2
CENTERX2
 70
0
  3
Center (2x) ________  __  ________  __  _____
 72
65
 73
4
 40
101.5999999999999943
 49
63.5
 49
-12.6999999999999993
 49
12.6999999999999993
 49
-12.6999999999999993
  0
LTYPE
  2
BORDER
 70
0
  3
Border __ __ . __ __ . __ __ . __ __ . __ __ .
 72
65
 73
6
 40
44.4500000000000028
 49
12.6999999999999993
 49
-6.3499999999999996
 49
12.6999999999999993
 49
-6.3499999999999996
 49
0.0
 49
-6.3499999999999996
  0
LTYPE
  2
BORDER2
 70
0
  3
Border (.5x) __.__.__.__.__.__.__.__.__.__.__.
 72
65
 73
6
 40
22.2250000000000014
 49
6.3499999999999996
 49
-3.1749999999999998
 49
6.3499999999999996
 49
-3.1749999999999998
 49
0.0
 49
-3.1749999999999998
  0
LTYPE
  2
BORDERX2
 70
0
  3
Border (2x) ____  ____  .  ____  ____  .  ___
 72
65
 73
6
 40
88.9000000000000057
 49
25.3999999999999986
 49
-12.6999999999999993
 49
25.3999999999999986
 49
-12.6999999999999993
 49
0.0
 49
-12.6999999999999993
  0
ENDTAB
  0
TABLE
  2
LAYER
 70
1
  0
LAYER
  2
0
 70
0
 62
7
  6
CONTINUOUS
  0
ENDTAB
  0
TABLE
  2
STYLE
 70
1
  0
STYLE
  2
Standard
 70
0
 40
0.0
 41
0.75
 50
0.0
 71
0
 42
2.5
  3
txt
  4

  0
ENDTAB
  0
TABLE
  2
VIEW
 70
0
  0
ENDTAB
  0
TABLE
  2
UCS
 70
0
  0
ENDTAB
  0
TABLE
  2
APPID
 70
1
  0
APPID
  2
ACAD
 70
0
  0
ENDTAB
  0
TABLE
  2
DIMSTYLE
 70
1
  0
DIMSTYLE
  2
Standard
  3

  4

  5

  6

  7

 40
1.0
 41
2.5
 42
0.625
 43
3.75
 44
1.25
 45
0.0
 46
0.0
 47
0.0
 48
0.0
 70
0
 71
0
 72
0
 73
0
 74
0
 75
0
 76
0
 77
1
 78
8
140
2.5
141
2.5
142
0.0
143
0.03937007874016
144
1.0
145
0.0
146
1.0
147
0.625
170
0
171
3
172
1
173
0
174
0
175
0
176
0
177
0
178
0
  0
ENDTAB
  0
ENDSEC
  0
SECTION
  2
BLOCKS
  0
ENDSEC
  0
SECTION
  2
ENTITIES
  0
LINE
  8
0
 62
7
  6
CONTINUOUS
 10
0.0
 20
4.0
 30
0.0
 11
0.0
 21
126.0
 31
0.0
  0
LINE
  8
0
 62
7
  6
CONTINUOUS
 10
70.0
 20
4.0
 30
0.0
 11
70.0
 21
126.0
 31
0.0
  0
LINE
  8
0
 62
7
  6
CONTINUOUS
 10
0.0
 20
4.0
 30
0.0
 11
8.0
 21
4.0
 31
0.0
  0
ARC
  8
0
 62
7
  6
CONTINUOUS
 10
9.0
 20
4.0
 30
0.0
 40
1.0
 50
0.0
 51
180.0
  0
LINE
  8
0
 62
7
  6
CONTINUOUS
 10
10.0
 20
4.0
 30
0.0
 11
10.0
 21
0.0
 31
0.0
  0
LINE
  8
0
 62
7
  6
CONTINUOUS
 10
10.0
 20
0.0
 30
0.0
 11
20.0
 21
0.0
 31
0.0
  0
LINE
  8
0
 62
7
  6
CONTINUOUS
 10
20.0
 20
0.0
 30
0.0
 11
20.0
 21
4.0
 31
0.0
  0
ARC
  8
0
 62
7
  6
CONTINUOUS
 10
21.0
 20
4.0
 30
0.0
 40
1.0
 50
0.0
 51
180.0
  0
LINE
  8
0
 62
7
  6
CONTINUOUS
 10
22.0
 20
4.0
 30
0.0
 11
28.0
 21
4.0
 31
0.0
  0
ARC
  8
0
 62
7
  6
CONTINUOUS
 10
29.0
 20
4.0
 30
0.0
 40
1.0
 50
0.0
 51
180.0
  0
LINE
  8
0
 62
7
  6
CONTINUOUS
 10
30.0
 20
4.0
 30
0.0
 11
30.0
 21
0.0
 31
0.0
  0
LINE
  8
0
 62
7
  6
CONTINUOUS
 10
30.0
 20
0.0
 30
0.0
 11
40.0
 21
0.0
 31
0.0
  0
LINE
  8
0
 62
7
  6
CONTINUOUS
 10
40.0
 20
0.0
 30
0.0
 11
40.0
 21
4.0
 31
0.0
  0
ARC
  8
0
 62
7
  6
CONTINUOUS
 10
41.0
 20
4.0
 30
0.0
 40
1.0
 50
0.0
 51
180.0
  0
LINE
  8
0
 62
7
  6
CONTINUOUS
 10
42.0
 20
4.0
 30
0.0
 11
48.0
 21
4.0
 31
0.0
  0
ARC
  8
0
 62
7
  6
CONTINUOUS
 10
49.0
 20
4.0
 30
0.0
 40
1.0
 50
0.0
 51
180.0
  0
LINE
  8
0
 62
7
  6
CONTINUOUS
 10
50.0
 20
4.0
 30
0.0
 11
50.0
 21
0.0
 31
0.0
  0
LINE
  8
0
 62
7
  6
CONTINUOUS
 10
50.0
 20
0.0
 30
0.0
 11
60.0
 21
0.0
 31
0.0
  0
LINE
  8
0
 62
7
  6
CONTINUOUS
 10
60.0
 20
0.0
 30
0.0
 11
60.0
 21
4.0
 31
0.0
  0
ARC
  8
0
 62
7
  6
CONTINUOUS
 10
61.0
 20
4.0
 30
0.0
 40
1.0
 50
0.0
 51
180.0
  0
LINE
  8
0
 62
7
  6
CONTINUOUS
 10
62.0
 20
4.0
 30
0.0
 11
70.0
 21
4.0
 31
0.0
  0
LINE
  8
0
 62
7
  6
CONTINUOUS
 10
0.0
 20
126.0
 30
0.0
 11
8.0
 21
126.0
 31
0.0
  0
ARC
  8
0
 62
7
  6
CONTINUOUS
 10
9.0
 20
126.0
 30
0.0
 40
1.0
 50
180.0
 51
0.0
  0
LINE
  8
0
 62
7
  6
CONTINUOUS
 10
10.0
 20
126.0
 30
0.0
 11
10.0
 21
130.0
 31
0.0
  0
LINE
  8
0
 62
7
  6
CONTINUOUS
 10
10.0
 20
130.0
 30
0.0
 11
20.0
 21
130.0
 31
0.0
  0
LINE
  8
0
 62
7
  6
CONTINUOUS
 10
20.0
 20
130.0
 30
0.0
 11
20.0
 21
126.0
 31
0.0
  0
ARC
  8
0
 62
7
  6
CONTINUOUS
 10
21.0
 20
126.0
 30
0.0
 40
1.0
 50
180.0
 51
0.0
  0
LINE
  8
0
 62
7
  6
CONTINUOUS
 10
22.0
 20
126.0
 30
0.0
 11
28.0
 21
126.0
 31
0.0
  0
ARC
  8
0
 62
7
  6
CONTINUOUS
 10
29.0
 20
126.0
 30
0.0
 40
1.0
 50
180.0
 51
0.0
  0
LINE
  8
0
 62
7
  6
CONTINUOUS
 10
30.0
 20
126.0
 30
0.0
 11
30.0
 21
130.0
 31
0.0
  0
LINE
  8
0
 62
7
  6
CONTINUOUS
 10
30.0
 20
130.0
 30
0.0
 11
40.0
 21
130.0
 31
0.0
  0
LINE
  8
0
 62
7
  6
CONTINUOUS
 10
40.0
 20
130.0
 30
0.0
 11
40.0
 21
126.0
 31
0.0
  0
ARC
  8
0
 62
7
  6
CONTINUOUS
 10
41.0
 20
126.0
 30
0.0
 40
1.0
 50
180.0
 51
0.0
  0
LINE
  8
0
 62
7
  6
CONTINUOUS
 10
42.0
 20
126.0
 30
0.0
 11
48.0
 21
126.0
 31
0.0
  0
ARC
  8
0
 62
7
  6
CONTINUOUS
 10
49.0
 20
126.0
 30
0.0
 40
1.0
 50
180.0
 51
0.0
  0
LINE
  8
0
 62
7
  6
CONTINUOUS
 10
50.0
 20
126.0
 30
0.0
 11
50.0
 21
130.0
 31
0.0
  0
LINE
  8
0
 62
7
  6
CONTINUOUS
 10
50.0
 20
130.0
 30
0.0
 11
60.0
 21
130.0
 31
0.0
  0
LINE
  8
0
 62
7
  6
CONTINUOUS
 10
60.0
 20
130.0
 30
0.0
 11
60.0
 21
126.0
 31
0.0
  0
ARC
  8
0
 62
7
  6
CONTINUOUS
 10
61.0
 20
126.0
 30
0.0
 40
1.0
 50
180.0
 51
0.0
  0
LINE
  8
0
 62
7
  6
CONTINUOUS
 10
62.0
 20
126.0
 30
0.0
 11
70.0
 21
126.0
 31
0.0
  0
LINE
  8
0
 62
7
  6
CONTINUOUS
 10
80.0
 20
4.0
 30
0.0
 11
80.0
 21
126.0
 31
0.0
  0
LINE
  8
0
 62
7
  6
CONTINUOUS
 10
150.0
 20
4.0
 30
0.0
 11
150.0
 21
126.0
 31
0.0
  0
LINE
  8
0
 62
7
  6
CONTINUOUS
 10
80.0
 20
4.0
 30
0.0
 11
88.0
 21
4.0
 31
0.0
  0
ARC
  8
0
 62
7
  6
CONTINUOUS
 10
89.0
 20
4.0
 30
0.0
 40
1.0
 50
0.0
 51
180.0
  0
LINE
  8
0
 62
7
  6
CONTINUOUS
 10
90.0
 20
4.0
 30
0.0
 11
90.0
 21
0.0
 31
0.0
  0
LINE
  8
0
 62
7
  6
CONTINUOUS
 10
90.0
 20
0.0
 30
0.0
 11
100.0
 21
0.0
 31
0.0
  0
LINE
  8
0
 62
7
  6
CONTINUOUS
 10
100.0
 20
0.0
 30
0.0
 11
100.0
 21
4.0
 31
0.0
  0
ARC
  8
0
 62
7
  6
CONTINUOUS
 10
101.0
 20
4.0
 30
0.0
 40
1.0
 50
0.0
 51
180.0
  0
LINE
  8
0
 62
7
  6
CONTINUOUS
 10
102.0
 20
4.0
 30
0.0
 11
108.0
 21
4.0
 31
0.0
  0
ARC
  8
0
 62
7
  6
CONTINUOUS
 10
109.0
 20
4.0
 30
0.0
 40
1.0
 50
0.0
 51
180.0
  0
LINE
  8
0
 62
7
  6
CONTINUOUS
 10
110.0
 20
4.0
 30
0.0
 11
110.0
 21
0.0
 31
0.0
  0
LINE
  8
0
 62
7
  6
CONTINUOUS
 10
110.0
 20
0.0
 30
0.0
 11
120.0
 21
0.0
 31
0.0
  0
LINE
  8
0
 62
7
  6
CONTINUOUS
 10
120.0
 20
0.0
 30
0.0
 11
120.0
 21
4.0
 31
0.0
  0
ARC
  8
0
 62
7
  6
CONTINUOUS
 10
121.0
 20
4.0
 30
0.0
 40
1.0
 50
0.0
 51
180.0
  0
LINE
  8
0
 62
7
  6
CONTINUOUS
 10
122.0
 20
4.0
 30
0.0
 11
128.0
 21
4.0
 31
0.0
  0
ARC
  8
0
 62
7
  6
CONTINUOUS
 10
129.0
 20
4.0
 30
0.0
 40
1.0
 50
0.0
 51
180.0
  0
LINE
  8
0
 62
7
  6
CONTINUOUS
 10
130.0
 20
4.0
 30
0.0
 11
130.0
 21
0.0
 31
0.0
  0
LINE
  8
0
 62
7
  6
CONTINUOUS
 10
130.0
 20
0.0
 30
0.0
 11
140.0
 21
0.0
 31
0.0
  0
LINE
  8
0
 62
7
  6
CONTINUOUS
 10
140.0
 20
0.0
 30
0.0
 11
140.0
 21
4.0
 31
0.0
  0
ARC
  8
0
 62
7
  6
CONTINUOUS
 10
141.0
 20
4.0
 30
0.0
 40
1.0
 50
0.0
 51
180.0
  0
LINE
  8
0
 62
7
  6
CONTINUOUS
 10
142.0
 20
4.0
 30
0.0
 11
150.0
 21
4.0
 31
0.0
  0
LINE
  8
0
 62
7
  6
CONTINUOUS
 10
80.0
 20
126.0
 30
0.0
 11
88.0
 21
126.0
 31
0.0
  0
ARC
  8
0
 62
7
  6
CONTINUOUS
 10
89.0
 20
126.0
 30
0.0
 40
1.0
 50
180.0
 51
0.0
  0
LINE
  8
0
 62
7
  6
CONTINUOUS
 10
90.0
 20
126.0
 30
0.0
 11
90.0
 21
130.0
 31
0.0
  0
LINE
  8
0
 62
7
  6
CONTINUOUS
 10
90.0
 20
130.0
 30
0.0
 11
100.0
 21
130.0
 31
0.0
  0
LINE
  8
0
 62
7
  6
CONTINUOUS
 10
100.0
 20
130.0
 30
0.0
 11
100.0
 21
126.0
 31
0.0
  0
ARC
  8
0
 62
7
  6
CONTINUOUS
 10
101.0
 20
126.0
 30
0.0
 40
1.0
 50
180.0
 51
0.0
  0
LINE
  8
0
 62
7
  6
CONTINUOUS
 10
102.0
 20
126.0
 30
0.0
 11
108.0
 21
126.0
 31
0.0
  0
ARC
  8
0
 62
7
  6
CONTINUOUS
 10
109.0
 20
126.0
 30
0.0
 40
1.0
 50
180.0
 51
0.0
  0
LINE
  8
0
 62
7
  6
CONTINUOUS
 10
110.0
 20
126.0
 30
0.0
 11
110.0
 21
130.0
 31
0.0
  0
LINE
  8
0
 62
7
  6
CONTINUOUS
 10
110.0
 20
130.0
 30
0.0
 11
120.0
 21
130.0
 31
0.0
  0
LINE
  8
0
 62
7
  6
CONTINUOUS
 10
120.0
 20
130.0
 30
0.0
 11
120.0
 21
126.0
 31
0.0
  0
ARC
  8
0
 62
7
  6
CONTINUOUS
 10
121.0
 20
126.0
 30
0.0
 40
1.0
 50
180.0
 51
0.0
  0
LINE
  8
0
 62
7
  6
CONTINUOUS
 10
122.0
 20
126.0
 30
0.0
 11
128.0
 21
126.0
 31
0.0
  0
ARC
  8
0
 62
7
  6
CONTINUOUS
 10
129.0
 20
126.0
 30
0.0
 40
1.0
 50
180.0
 51
0.0
  0
LINE
  8
0
 62
7
  6
CONTINUOUS
 10
130.0
 20
126.0
 30
0.0
 11
130.0
 21
130.0
 31
0.0
  0
LINE
  8
0
 62
7
  6
CONTINUOUS
 10
130.0
 20
130.0
 30
0.0
 11
140.0
 21
130.0
 31
0.0
  0
LINE
  8
0
 62
7
  6
CONTINUOUS
 10
140.0
 20
130.0
 30
0.0
 11
140.0
 21
126.0
 31
0.0
  0
ARC
  8
0
 62
7
  6
CONTINUOUS
 10
141.0
 20
126.0
 30
0.0
 40
1.0
 50
180.0
 51
0.0
  0
LINE
  8
0
 62
7
  6
CONTINUOUS
 10
142.0
 20
126.0
 30
0.0
 11
150.0
 21
126.0
 31
0.0
  0
LINE
  8
0
 62
7
  6
CONTINUOUS
 10
160.0
 20
4.0
 30
0.0
 11
160.0
 21
126.0
 31
0.0
  0
LINE
  8
0
 62
7
  6
CONTINUOUS
 10
230.0
 20
4.0
 30
0.0
 11
230.0
 21
126.0
 31
0.0
  0
LINE
  8
0
 62
7
  6
CONTINUOUS
 10
160.0
 20
126.0
 30
0.0
 11
160.0
 21
130.0
 31
0.0
  0
LINE
  8
0
 62
7
  6
CONTINUOUS
 10
160.0
 20
130.0
 30
0.0
 11
170.0
 21
130.0
 31
0.0
  0
LINE
  8
0
 62
7
  6
CONTINUOUS
 10
170.0
 20
130.0
 30
0.0
 11
170.0
 21
126.0
 31
0.0
  0
ARC
  8
0
 62
7
  6
CONTINUOUS
 10
171.0
 20
126.0
 30
0.0
 40
1.0
 50
180.0
 51
0.0
  0
LINE
  8
0
 62
7
  6
CONTINUOUS
 10
172.0
 20
126.0
 30
0.0
 11
178.0
 21
126.0
 31
0.0
  0
ARC
  8
0
 62
7
  6
CONTINUOUS
 10
179.0
 20
126.0
 30
0.0
 40
1.0
 50
180.0
 51
0.0
  0
LINE
  8
0
 62
7
  6
CONTINUOUS
 10
180.0
 20
126.0
 30
0.0
 11
180.0
 21
130.0
 31
0.0
  0
LINE
  8
0
 62
7
  6
CONTINUOUS
 10
180.0
 20
130.0
 30
0.0
 11
190.0
 21
130.0
 31
0.0
  0
LINE
  8
0
 62
7
  6
CONTINUOUS
 10
190.0
 20
130.0
 30
0.0
 11
190.0
 21
126.0
 31
0.0
  0
ARC
  8
0
 62
7
  6
CONTINUOUS
 10
191.0
 20
126.0
 30
0.0
 40
1.0
 50
180.0
 51
0.0
  0
LINE
  8
0
 62
7
  6
CONTINUOUS
 10
192.0
 20
126.0
 30
0.0
 11
198.0
 21
126.0
 31
0.0
  0
ARC
  8
0
 62
7
  6
CONTINUOUS
 10
199.0
 20
126.0
 30
0.0
 40
1.0
 50
180.0
 51
0.0
  0
LINE
  8
0
 62
7
  6
CONTINUOUS
 10
200.0
 20
126.0
 30
0.0
 11
200.0
 21
130.0
 31
0.0
  0
LINE
  8
0
 62
7
  6
CONTINUOUS
 10
200.0
 20
130.0
 30
0.0
 11
210.0
 21
130.0
 31
0.0
  0
LINE
  8
0
 62
7
  6
CONTINUOUS
 10
210.0
 20
130.0
 30
0.0
 11
210.0
 21
126.0
 31
0.0
  0
ARC
  8
0
 62
7
  6
CONTINUOUS
 10
211.0
 20
126.0
 30
0.0
 40
1.0
 50
180.0
 51
0.0
  0
LINE
  8
0
 62
7
  6
CONTINUOUS
 10
212.0
 20
126.0
 30
0.0
 11
218.0
 21
126.0
 31
0.0
  0
ARC
  8
0
 62
7
  6
CONTINUOUS
 10
219.0
 20
126.0
 30
0.0
 40
1.0
 50
180.0
 51
0.0
  0
LINE
  8
0
 62
7
  6
CONTINUOUS
 10
220.0
 20
126.0
 30
0.0
 11
220.0
 21
130.0
 31
0.0
  0
LINE
  8
0
 62
7
  6
CONTINUOUS
 10
220.0
 20
130.0
 30
0.0
 11
230.0
 21
130.0
 31
0.0
  0
LINE
  8
0
 62
7
  6
CONTINUOUS
 10
230.0
 20
130.0
 30
0.0
 11
230.0
 21
126.0
 31
0.0
  0
LINE
  8
0
 62
7
  6
CONTINUOUS
 10
160.0
 20
4.0
 30
0.0
 11
160.0
 21
0.0
 31
0.0
  0
LINE
  8
0
 62
7
  6
CONTINUOUS
 10
160.0
 20
0.0
 30
0.0
 11
170.0
 21
0.0
 31
0.0
  0
LINE
  8
0
 62
7
  6
CONTINUOUS
 10
170.0
 20
0.0
 30
0.0
 11
170.0
 21
4.0
 31
0.0
  0
ARC
  8
0
 62
7
  6
CONTINUOUS
 10
171.0
 20
4.0
 30
0.0
 40
1.0
 50
0.0
 51
180.0
  0
LINE
  8
0
 62
7
  6
CONTINUOUS
 10
172.0
 20
4.0
 30
0.0
 11
178.0
 21
4.0
 31
0.0
  0
ARC
  8
0
 62
7
  6
CONTINUOUS
 10
179.0
 20
4.0
 30
0.0
 40
1.0
 50
0.0
 51
180.0
  0
LINE
  8
0
 62
7
  6
CONTINUOUS
 10
180.0
 20
4.0
 30
0.0
 11
180.0
 21
0.0
 31
0.0
  0
LINE
  8
0
 62
7
  6
CONTINUOUS
 10
180.0
 20
0.0
 30
0.0
 11
190.0
 21
0.0
 31
0.0
  0
LINE
  8
0
 62
7
  6
CONTINUOUS
 10
190.0
 20
0.0
 30
0.0
 11
190.0
 21
4.0
 31
0.0
  0
ARC
  8
0
 62
7
  6
CONTINUOUS
 10
191.0
 20
4.0
 30
0.0
 40
1.0
 50
0.0
 51
180.0
  0
LINE
  8
0
 62
7
  6
CONTINUOUS
 10
192.0
 20
4.0
 30
0.0
 11
198.0
 21
4.0
 31
0.0
  0
ARC
  8
0
 62
7
  6
CONTINUOUS
 10
199.0
 20
4.0
 30
0.0
 40
1.0
 50
0.0
 51
180.0
  0
LINE
  8
0
 62
7
  6
CONTINUOUS
 10
200.0
 20
4.0
 30
0.0
 11
200.0
 21
0.0
 31
0.0
  0
LINE
  8
0
 62
7
  6
CONTINUOUS
 10
200.0
 20
0.0
 30
0.0
 11
210.0
 21
0.0
 31
0.0
  0
LINE
  8
0
 62
7
  6
CONTINUOUS
 10
210.0
 20
0.0
 30
0.0
 11
210.0
 21
4.0
 31
0.0
  0
ARC
  8
0
 62
7
  6
CONTINUOUS
 10
211.0
 20
4.0
 30
0.0
 40
1.0
 50
0.0
 51
180.0
  0
LINE
  8
0
 62
7
  6
CONTINUOUS
 10
212.0
 20
4.0
 30
0.0
 11
218.0
 21
4.0
 31
0.0
  0
ARC
  8
0
 62
7
  6
CONTINUOUS
 10
219.0
 20
4.0
 30
0.0
 40
1.0
 50
0.0
 51
180.0
  0
LINE
  8
0
 62
7
  6
CONTINUOUS
 10
220.0
 20
4.0
 30
0.0
 11
220.0
 21
0.0
 31
0.0
  0
LINE
  8
0
 62
7
  6
CONTINUOUS
 10
220.0
 20
0.0
 30
0.0
 11
230.0
 21
0.0
 31
0.0
  0
LINE
  8
0
 62
7
  6
CONTINUOUS
 10
230.0
 20
0.0
 30
0.0
 11
230.0
 21
4.0
 31
0.0
  0
LINE
  8
0
 62
7
  6
CONTINUOUS
 10
240.0
 20
4.0
 30
0.0
 11
240.0
 21
126.0
 31
0.0
  0
LINE
  8
0
 62
7
  6
CONTINUOUS
 10
310.0
 20
4.0
 30
0.0
 11
310.0
 21
126.0
 31
0.0
  0
LINE
  8
0
 62
7
  6
CONTINUOUS
 10
240.0
 20
126.0
 30
0.0
 11
240.0
 21
130.0
 31
0.0
  0
LINE
  8
0
 62
7
  6
CONTINUOUS
 10
240.0
 20
130.0
 30
0.0
 11
250.0
 21
130.0
 31
0.0
  0
LINE
  8
0
 62
7
  6
CONTINUOUS
 10
250.0
 20
130.0
 30
0.0
 11
250.0
 21
126.0
 31
0.0
  0
ARC
  8
0
 62
7
  6
CONTINUOUS
 10
251.0
 20
126.0
 30
0.0
 40
1.0
 50
180.0
 51
0.0
  0
LINE
  8
0
 62
7
  6
CONTINUOUS
 10
252.0
 20
126.0
 30
0.0
 11
258.0
 21
126.0
 31
0.0
  0
ARC
  8
0
 62
7
  6
CONTINUOUS
 10
259.0
 20
126.0
 30
0.0
 40
1.0
 50
180.0
 51
0.0
  0
LINE
  8
0
 62
7
  6
CONTINUOUS
 10
260.0
 20
126.0
 30
0.0
 11
260.0
 21
130.0
 31
0.0
  0
LINE
  8
0
 62
7
  6
CONTINUOUS
 10
260.0
 20
130.0
 30
0.0
 11
270.0
 21
130.0
 31
0.0
  0
LINE
  8
0
 62
7
  6
CONTINUOUS
 10
270.0
 20
130.0
 30
0.0
 11
270.0
 21
126.0
 31
0.0
  0
ARC
  8
0
 62
7
  6
CONTINUOUS
 10
271.0
 20
126.0
 30
0.0
 40
1.0
 50
180.0
 51
0.0
  0
LINE
  8
0
 62
7
  6
CONTINUOUS
 10
272.0
 20
126.0
 30
0.0
 11
278.0
 21
126.0
 31
0.0
  0
ARC
  8
0
 62
7
  6
CONTINUOUS
 10
279.0
 20
126.0
 30
0.0
 40
1.0
 50
180.0
 51
0.0
  0
LINE
  8
0
 62
7
  6
CONTINUOUS
 10
280.0
 20
126.0
 30
0.0
 11
280.0
 21
130.0
 31
0.0
  0
LINE
  8
0
 62
7
  6
CONTINUOUS
 10
280.0
 20
130.0
 30
0.0
 11
290.0
 21
130.0
 31
0.0
  0
LINE
  8
0
 62
7
  6
CONTINUOUS
 10
290.0
 20
130.0
 30
0.0
 11
290.0
 21
126.0
 31
0.0
  0
ARC
  8
0
 62
7
  6
CONTINUOUS
 10
291.0
 20
126.0
 30
0.0
 40
1.0
 50
180.0
 51
0.0
  0
LINE
  8
0
 62
7
  6
CONTINUOUS
 10
292.0
 20
126.0
 30
0.0
 11
298.0
 21
126.0
 31
0.0
  0
ARC
  8
0
 62
7
  6
CONTINUOUS
 10
299.0
 20
126.0
 30
0.0
 40
1.0
 50
180.0
 51
0.0
  0
LINE
  8
0
 62
7
  6
CONTINUOUS
 10
300.0
 20
126.0
 30
0.0
 11
300.0
 21
130.0
 31
0.0
  0
LINE
  8
0
 62
7
  6
CONTINUOUS
 10
300.0
 20
130.0
 30
0.0
 11
310.0
 21
130.0
 31
0.0
  0
LINE
  8
0
 62
7
  6
CONTINUOUS
 10
310.0
 20
130.0
 30
0.0
 11
310.0
 21
126.0
 31
0.0
  0
LINE
  8
0
 62
7
  6
CONTINUOUS
 10
240.0
 20
4.0
 30
0.0
 11
240.0
 21
0.0
 31
0.0
  0
LINE
  8
0
 62
7
  6
CONTINUOUS
 10
240.0
 20
0.0
 30
0.0
 11
250.0
 21
0.0
 31
0.0
  0
LINE
  8
0
 62
7
  6
CONTINUOUS
 10
250.0
 20
0.0
 30
0.0
 11
250.0
 21
4.0
 31
0.0
  0
ARC
  8
0
 62
7
  6
CONTINUOUS
 10
251.0
 20
4.0
 30
0.0
 40
1.0
 50
0.0
 51
180.0
  0
LINE
  8
0
 62
7
  6
CONTINUOUS
 10
252.0
 20
4.0
 30
0.0
 11
258.0
 21
4.0
 31
0.0
  0
ARC
  8
0
 62
7
  6
CONTINUOUS
 10
259.0
 20
4.0
 30
0.0
 40
1.0
 50
0.0
 51
180.0
  0
LINE
  8
0
 62
7
  6
CONTINUOUS
 10
260.0
 20
4.0
 30
0.0
 11
260.0
 21
0.0
 31
0.0
  0
LINE
  8
0
 62
7
  6
CONTINUOUS
 10
260.0
 20
0.0
 30
0.0
 11
270.0
 21
0.0
 31
0.0
  0
LINE
  8
0
 62
7
  6
CONTINUOUS
 10
270.0
 20
0.0
 30
0.0
 11
270.0
 21
4.0
 31
0.0
  0
ARC
  8
0
 62
7
  6
CONTINUOUS
 10
271.0
 20
4.0
 30
0.0
 40
1.0
 50
0.0
 51
180.0
  0
LINE
  8
0
 62
7
  6
CONTINUOUS
 10
272.0
 20
4.0
 30
0.0
 11
278.0
 21
4.0
 31
0.0
  0
ARC
  8
0
 62
7
  6
CONTINUOUS
 10
279.0
 20
4.0
 30
0.0
 40
1.0
 50
0.0
 51
180.0
  0
LINE
  8
0
 62
7
  6
CONTINUOUS
 10
280.0
 20
4.0
 30
0.0
 11
280.0
 21
0.0
 31
0.0
  0
LINE
  8
0
 62
7
  6
CONTINUOUS
 10
280.0
 20
0.0
 30
0.0
 11
290.0
 21
0.0
 31
0.0
  0
LINE
  8
0
 62
7
  6
CONTINUOUS
 10
290.0
 20
0.0
 30
0.0
 11
290.0
 21
4.0
 31
0.0
  0
ARC
  8
0
 62
7
  6
CONTINUOUS
 10
291.0
 20
4.0
 30
0.0
 40
1.0
 50
0.0
 51
180.0
  0
LINE
  8
0
 62
7
  6
CONTINUOUS
 10
292.0
 20
4.0
 30
0.0
 11
298.0
 21
4.0
 31
0.0
  0
ARC
  8
0
 62
7
  6
CONTINUOUS
 10
299.0
 20
4.0
 30
0.0
 40
1.0
 50
0.0
 51
180.0
  0
LINE
  8
0
 62
7
  6
CONTINUOUS
 10
300.0
 20
4.0
 30
0.0
 11
300.0
 21
0.0
 31
0.0
  0
LINE
  8
0
 62
7
  6
CONTINUOUS
 10
300.0
 20
0.0
 30
0.0
 11
310.0
 21
0.0
 31
0.0
  0
LINE
  8
0
 62
7
  6
CONTINUOUS
 10
310.0
 20
0.0
 30
0.0
 11
310.0
 21
4.0
 31
0.0
  0
LINE
  8
0
 62
7
  6
CONTINUOUS
 10
321.0
 20
4.0
 30
0.0
 11
445.0
 21
4.0
 31
0.0
  0
LINE
  8
0
 62
7
  6
CONTINUOUS
 10
446.0
 20
5.0
 30
0.0
 11
446.0
 21
129.0
 31
0.0
  0
LINE
  8
0
 62
7
  6
CONTINUOUS
 10
445.0
 20
130.0
 30
0.0
 11
321.0
 21
130.0
 31
0.0
  0
LINE
  8
0
 62
7
  6
CONTINUOUS
 10
320.0
 20
129.0
 30
0.0
 11
320.0
 21
5.0
 31
0.0
  0
ARC
  8
0
 62
7
  6
CONTINUOUS
 10
321.0
 20
5.0
 30
0.0
 40
1.0
 50
180.0
 51
270.0
  0
ARC
  8
0
 62
7
  6
CONTINUOUS
 10
445.0
 20
5.0
 30
0.0
 40
1.0
 50
270.0
 51
360.0
  0
ARC
  8
0
 62
7
  6
CONTINUOUS
 10
445.0
 20
129.0
 30
0.0
 40
1.0
 50
0.0
 51
90.0
  0
ARC
  8
0
 62
7
  6
CONTINUOUS
 10
321.0
 20
129.0
 30
0.0
 40
1.0
 50
90.0
 51
180.0
  0
POLYLINE
  8
0
 62
1
  6
CONTINUOUS
 66
1
 70
0
 10
0.0
 20
0.0
 30
0.0
  0
VERTEX
  8
0
 10
62.0
 20
2.0
 30
0.0
  0
VERTEX
  8
0
 10
62.0
 20
128.0
 30
0.0
  0
VERTEX
  8
0
 10
66.0
 20
128.0
 30
0.0
  0
VERTEX
  8
0
 10
66.0
 20
2.0
 30
0.0
  0
VERTEX
  8
0
 10
62.0
 20
2.0
 30
0.0
  0
SEQEND
  0
POLYLINE
  8
0
 62
1
  6
CONTINUOUS
 66
1
 70
0
 10
0.0
 20
0.0
 30
0.0
  0
VERTEX
  8
0
 10
142.0
 20
2.0
 30
0.0
  0
VERTEX
  8
0
 10
142.0
 20
128.0
 30
0.0
  0
VERTEX
  8
0
 10
146.0
 20
128.0
 30
0.0
  0
VERTEX
  8
0
 10
146.0
 20
2.0
 30
0.0
  0
VERTEX
  8
0
 10
142.0
 20
2.0
 30
0.0
  0
SEQEND
  0
POLYLINE
  8
0
 62
1
  6
CONTINUOUS
 66
1
 70
0
 10
0.0
 20
0.0
 30
0.0
  0
VERTEX
  8
0
 10
222.0
 20
128.0
 30
0.0
  0
VERTEX
  8
0
 10
222.0
 20
2.0
 30
0.0
  0
VERTEX
  8
0
 10
226.0
 20
2.0
 30
0.0
  0
VERTEX
  8
0
 10
226.0
 20
128.0
 30
0.0
  0
VERTEX
  8
0
 10
222.0
 20
128.0
 30
0.0
  0
SEQEND
  0
POLYLINE
  8
0
 62
1
  6
CONTINUOUS
 66
1
 70
0
 10
0.0
 20
0.0
 30
0.0
  0
VERTEX
  8
0
 10
302.0
 20
128.0
 30
0.0
  0
VERTEX
  8
0
 10
302.0
 20
2.0
 30
0.0
  0
VERTEX
  8
0
 10
306.0
 20
2.0
 30
0.0
  0
VERTEX
  8
0
 10
306.0
 20
128.0
 30
0.0
  0
VERTEX
  8
0
 10
302.0
 20
128.0
 30
0.0
  0
SEQEND
  0
ENDSEC
  0
EOF
