999
dxflib 2.2.0.0
  0
SECTION
  2
HEADER
  9
$ACADVER
  1
AC1015
  9
$HANDSEED
  5
FFFF
  9
$SNAPSTYLE
 70
0
  9
$DIMLFAC
 40
1.0
  9
$SPLINESEGS
 70
8
  9
$DIMEXE
 40
6.5
  9
$PSVPSCALE
 40
0.0
  9
$LIMMAX
 10
12.0
 20
9.0
  9
$DIMSCALE
 40
1.0
  9
$DIMLUNIT
 70
2
  9
$INSBASE
 10
0.0
 20
0.0
 30
0.0
  9
$GRIDMODE
 70
0
  9
$INSUNITS
 70
4
  9
$DIMADEC
 70
0
  9
$DIMASZ
 40
13.0
  9
$DIMGAP
 40
3.25
  9
$DIMTXT
 40
13.0
  9
$TEXTSTYLE
  7
Standard
  9
$LIMMIN
 10
0.0
 20
0.0
  9
$DIMEXO
 40
3.25
  9
$LUPREC
 70
4
  9
$EXTMAX
 10
43.0
 20
1676.5
 30
0.0
  9
$CLAYER
  8
Bemaßung
  9
$DIMTIH
 70
1
  9
$PINSBASE
 10
0.0
 20
0.0
 30
0.0
  9
$ORTHOMODE
 70
0
  9
$DIMAUNIT
 70
0
  9
$DWGCODEPAGE
  3
ANSI_1252
  9
$LTSCALE
 40
1.0
  9
$AUPREC
 70
0
  9
$PLIMMIN
 10
0.0
 20
0.0
  9
$LUNITS
 70
2
  9
$EXTMIN
 10
-1383.7222222200000488
 20
1200.0
 30
0.0
  9
$PLIMMAX
 10
12.0
 20
9.0
  9
$DIMTSZ
 40
0.0
  9
$DIMSTYLE
  2
Standard
  9
$AUNITS
 70
0
  9
$CLAYER
  8
Bemaßung
  0
ENDSEC
  0
SECTION
  2
TABLES
  0
TABLE
  2
VPORT
  5
8
100
AcDbSymbolTable
 70
1
  0
VPORT
  5
30
100
AcDbSymbolTableRecord
100
AcDbViewportTableRecord
  2
*Active
 70
0
 10
0.0
 20
0.0
 11
1.0
 21
1.0
 12
286.3055555555554861
 22
148.5
 13
0.0
 23
0.0
 14
10.0
 24
10.0
 15
10.0
 25
10.0
 16
0.0
 26
0.0
 36
1.0
 17
0.0
 27
0.0
 37
0.0
 40
297.0
 41
1.92798353909465
 42
50.0
 43
0.0
 44
0.0
 50
0.0
 51
0.0
 71
0
 72
100
 73
1
 74
3
 75
1
 76
1
 77
0
 78
0
281
0
 65
1
110
0.0
120
0.0
130
0.0
111
1.0
121
0.0
131
0.0
112
0.0
122
1.0
132
0.0
 79
0
146
0.0
  0
ENDTAB
  0
TABLE
  2
LTYPE
  5
5
100
AcDbSymbolTable
 70
21
  0
LTYPE
  5
14
100
AcDbSymbolTableRecord
100
AcDbLinetypeTableRecord
  2
ByBlock
 70
0
  3

 72
65
 73
0
 40
0.0
  0
LTYPE
  5
15
100
AcDbSymbolTableRecord
100
AcDbLinetypeTableRecord
  2
ByLayer
 70
0
  3

 72
65
 73
0
 40
0.0
  0
LTYPE
  5
16
100
AcDbSymbolTableRecord
100
AcDbLinetypeTableRecord
  2
CONTINUOUS
 70
0
  3
Solid line
 72
65
 73
0
 40
0.0
  0
LTYPE
  5
31
100
AcDbSymbolTableRecord
100
AcDbLinetypeTableRecord
  2
DOT
 70
0
  3
Dot . . . . . . . . . . . . . . . . . . . . . .
 72
65
 73
2
 40
6.3499999999999996
 49
0.0
 74
0
 49
-6.3499999999999996
 74
0
  0
LTYPE
  5
32
100
AcDbSymbolTableRecord
100
AcDbLinetypeTableRecord
  2
DOT2
 70
0
  3
Dot (.5x) .....................................
 72
65
 73
2
 40
3.1749999999999998
 49
0.0
 74
0
 49
-3.1749999999999998
 74
0
  0
LTYPE
  5
33
100
AcDbSymbolTableRecord
100
AcDbLinetypeTableRecord
  2
DOTX2
 70
0
  3
Dot (2x) .  .  .  .  .  .  .  .  .  .  .  .  .
 72
65
 73
2
 40
12.6999999999999993
 49
0.0
 74
0
 49
-12.6999999999999993
 74
0
  0
LTYPE
  5
34
100
AcDbSymbolTableRecord
100
AcDbLinetypeTableRecord
  2
DASHED
 70
0
  3
Dashed __ __ __ __ __ __ __ __ __ __ __ __ __ _
 72
65
 73
2
 40
19.0500000000000007
 49
12.6999999999999993
 74
0
 49
-6.3499999999999996
 74
0
  0
LTYPE
  5
35
100
AcDbSymbolTableRecord
100
AcDbLinetypeTableRecord
  2
DASHED2
 70
0
  3
Dashed (.5x) _ _ _ _ _ _ _ _ _ _ _ _ _ _ _ _ _
 72
65
 73
2
 40
9.5250000000000004
 49
6.3499999999999996
 74
0
 49
-3.1749999999999998
 74
0
  0
LTYPE
  5
36
100
AcDbSymbolTableRecord
100
AcDbLinetypeTableRecord
  2
DASHEDX2
 70
0
  3
Dashed (2x) ____  ____  ____  ____  ____  ___
 72
65
 73
2
 40
38.1000000000000014
 49
25.3999999999999986
 74
0
 49
-12.6999999999999993
 74
0
  0
LTYPE
  5
37
100
AcDbSymbolTableRecord
100
AcDbLinetypeTableRecord
  2
DASHDOT
 70
0
  3
Dash dot __ . __ . __ . __ . __ . __ . __ . __
 72
65
 73
4
 40
25.3999999999999986
 49
12.6999999999999993
 74
0
 49
-6.3499999999999996
 74
0
 49
0.0
 74
0
 49
-6.3499999999999996
 74
0
  0
LTYPE
  5
38
100
AcDbSymbolTableRecord
100
AcDbLinetypeTableRecord
  2
DASHDOT2
 70
0
  3
Dash dot (.5x) _._._._._._._._._._._._._._._.
 72
65
 73
4
 40
12.6999999999999993
 49
6.3499999999999996
 74
0
 49
-3.1749999999999998
 74
0
 49
0.0
 74
0
 49
-3.1749999999999998
 74
0
  0
LTYPE
  5
39
100
AcDbSymbolTableRecord
100
AcDbLinetypeTableRecord
  2
DASHDOTX2
 70
0
  3
Dash dot (2x) ____  .  ____  .  ____  .  ___
 72
65
 73
4
 40
50.7999999999999972
 49
25.3999999999999986
 74
0
 49
-12.6999999999999993
 74
0
 49
0.0
 74
0
 49
-12.6999999999999993
 74
0
  0
LTYPE
  5
3A
100
AcDbSymbolTableRecord
100
AcDbLinetypeTableRecord
  2
DIVIDE
 70
0
  3
Divide ____ . . ____ . . ____ . . ____ . . ____
 72
65
 73
6
 40
31.75
 49
12.6999999999999993
 74
0
 49
-6.3499999999999996
 74
0
 49
0.0
 74
0
 49
-6.3499999999999996
 74
0
 49
0.0
 74
0
 49
-6.3499999999999996
 74
0
  0
LTYPE
  5
3B
100
AcDbSymbolTableRecord
100
AcDbLinetypeTableRecord
  2
DIVIDE2
 70
0
  3
Divide (.5x) __..__..__..__..__..__..__..__.._
 72
65
 73
6
 40
15.875
 49
6.3499999999999996
 74
0
 49
-3.1749999999999998
 74
0
 49
0.0
 74
0
 49
-3.1749999999999998
 74
0
 49
0.0
 74
0
 49
-3.1749999999999998
 74
0
  0
LTYPE
  5
3C
100
AcDbSymbolTableRecord
100
AcDbLinetypeTableRecord
  2
DIVIDEX2
 70
0
  3
Divide (2x) ________  .  .  ________  .  .  _
 72
65
 73
6
 40
63.5
 49
25.3999999999999986
 74
0
 49
-12.6999999999999993
 74
0
 49
0.0
 74
0
 49
-12.6999999999999993
 74
0
 49
0.0
 74
0
 49
-12.6999999999999993
 74
0
  0
LTYPE
  5
3D
100
AcDbSymbolTableRecord
100
AcDbLinetypeTableRecord
  2
CENTER
 70
0
  3
Center ____ _ ____ _ ____ _ ____ _ ____ _ ____
 72
65
 73
4
 40
50.7999999999999972
 49
31.75
 74
0
 49
-6.3499999999999996
 74
0
 49
6.3499999999999996
 74
0
 49
-6.3499999999999996
 74
0
  0
LTYPE
  5
3E
100
AcDbSymbolTableRecord
100
AcDbLinetypeTableRecord
  2
CENTER2
 70
0
  3
Center (.5x) ___ _ ___ _ ___ _ ___ _ ___ _ ___
 72
65
 73
4
 40
28.5749999999999993
 49
19.0500000000000007
 74
0
 49
-3.1749999999999998
 74
0
 49
3.1749999999999998
 74
0
 49
-3.1749999999999998
 74
0
  0
LTYPE
  5
3F
100
AcDbSymbolTableRecord
100
AcDbLinetypeTableRecord
  2
CENTERX2
 70
0
  3
Center (2x) ________  __  ________  __  _____
 72
65
 73
4
 40
101.5999999999999943
 49
63.5
 74
0
 49
-12.6999999999999993
 74
0
 49
12.6999999999999993
 74
0
 49
-12.6999999999999993
 74
0
  0
LTYPE
  5
40
100
AcDbSymbolTableRecord
100
AcDbLinetypeTableRecord
  2
BORDER
 70
0
  3
Border __ __ . __ __ . __ __ . __ __ . __ __ .
 72
65
 73
6
 40
44.4500000000000028
 49
12.6999999999999993
 74
0
 49
-6.3499999999999996
 74
0
 49
12.6999999999999993
 74
0
 49
-6.3499999999999996
 74
0
 49
0.0
 74
0
 49
-6.3499999999999996
 74
0
  0
LTYPE
  5
41
100
AcDbSymbolTableRecord
100
AcDbLinetypeTableRecord
  2
BORDER2
 70
0
  3
Border (.5x) __.__.__.__.__.__.__.__.__.__.__.
 72
65
 73
6
 40
22.2250000000000014
 49
6.3499999999999996
 74
0
 49
-3.1749999999999998
 74
0
 49
6.3499999999999996
 74
0
 49
-3.1749999999999998
 74
0
 49
0.0
 74
0
 49
-3.1749999999999998
 74
0
  0
LTYPE
  5
42
100
AcDbSymbolTableRecord
100
AcDbLinetypeTableRecord
  2
BORDERX2
 70
0
  3
Border (2x) ____  ____  .  ____  ____  .  ___
 72
65
 73
6
 40
88.9000000000000057
 49
25.3999999999999986
 74
0
 49
-12.6999999999999993
 74
0
 49
25.3999999999999986
 74
0
 49
-12.6999999999999993
 74
0
 49
0.0
 74
0
 49
-12.6999999999999993
 74
0
  0
ENDTAB
  0
TABLE
  2
LAYER
  5
2
100
AcDbSymbolTable
 70
3
  0
LAYER
  5
10
100
AcDbSymbolTableRecord
100
AcDbLayerTableRecord
  2
0
 70
0
 62
7
420
16777215
  6
CONTINUOUS
370
25
390
F
  0
LAYER
  5
43
100
AcDbSymbolTableRecord
100
AcDbLayerTableRecord
  2
Bemaßung
 70
0
 62
3
420
65280
  6
CONTINUOUS
370
25
390
F
  0
LAYER
  5
44
100
AcDbSymbolTableRecord
100
AcDbLayerTableRecord
  2
Defpoints
 70
0
 62
7
420
16777215
  6
CONTINUOUS
290
0
370
-3
390
F
  0
ENDTAB
  0
TABLE
  2
STYLE
  5
3
100
AcDbSymbolTable
 70
1
  0
STYLE
  5
11
100
AcDbSymbolTableRecord
100
AcDbTextStyleTableRecord
  2
Standard
 70
0
 40
0.0
 41
0.75
 50
0.0
 71
0
 42
2.5
  3
txt
  4

  0
ENDTAB
  0
TABLE
  2
VIEW
  5
6
100
AcDbSymbolTable
 70
0
  0
ENDTAB
  0
TABLE
  2
UCS
  5
7
100
AcDbSymbolTable
 70
0
  0
ENDTAB
  0
TABLE
  2
APPID
  5
9
100
AcDbSymbolTable
 70
1
  0
APPID
  5
12
100
AcDbSymbolTableRecord
100
AcDbRegAppTableRecord
  2
ACAD
 70
0
  0
ENDTAB
  0
TABLE
  2
DIMSTYLE
  5
A
100
AcDbSymbolTable
 70
1
100
AcDbDimStyleTable
 71
0
  0
DIMSTYLE
105
27
100
AcDbSymbolTableRecord
100
AcDbDimStyleTableRecord
  2
Standard
 41
13.0
 42
3.25
 43
3.75
 44
6.5
 70
0
 73
0
 74
0
 77
1
 78
8
140
13.0
141
2.5
143
0.03937007874016
147
3.25
171
3
172
1
271
2
272
2
274
3
278
44
283
0
284
8
340
11
  0
ENDTAB
  0
TABLE
  2
BLOCK_RECORD
  5
1
100
AcDbSymbolTable
 70
1
  0
BLOCK_RECORD
  5
1F
100
AcDbSymbolTableRecord
100
AcDbBlockTableRecord
  2
*Model_Space
340
22
  0
BLOCK_RECORD
  5
1B
100
AcDbSymbolTableRecord
100
AcDbBlockTableRecord
  2
*Paper_Space
340
1E
  0
BLOCK_RECORD
  5
23
100
AcDbSymbolTableRecord
100
AcDbBlockTableRecord
  2
*Paper_Space0
340
26
  0
BLOCK_RECORD
  5
45
100
AcDbSymbolTableRecord
100
AcDbBlockTableRecord
  2
*D3
340
0
  0
BLOCK_RECORD
  5
46
100
AcDbSymbolTableRecord
100
AcDbBlockTableRecord
  2
*D7
340
0
  0
BLOCK_RECORD
  5
47
100
AcDbSymbolTableRecord
100
AcDbBlockTableRecord
  2
*D11
340
0
  0
BLOCK_RECORD
  5
48
100
AcDbSymbolTableRecord
100
AcDbBlockTableRecord
  2
*D6
340
0
  0
BLOCK_RECORD
  5
49
100
AcDbSymbolTableRecord
100
AcDbBlockTableRecord
  2
*D9
340
0
  0
BLOCK_RECORD
  5
4A
100
AcDbSymbolTableRecord
100
AcDbBlockTableRecord
  2
*D2
340
0
  0
BLOCK_RECORD
  5
4B
100
AcDbSymbolTableRecord
100
AcDbBlockTableRecord
  2
*D4
340
0
  0
BLOCK_RECORD
  5
4C
100
AcDbSymbolTableRecord
100
AcDbBlockTableRecord
  2
*D1
340
0
  0
BLOCK_RECORD
  5
4D
100
AcDbSymbolTableRecord
100
AcDbBlockTableRecord
  2
*D5
340
0
  0
BLOCK_RECORD
  5
4E
100
AcDbSymbolTableRecord
100
AcDbBlockTableRecord
  2
*D8
340
0
  0
BLOCK_RECORD
  5
4F
100
AcDbSymbolTableRecord
100
AcDbBlockTableRecord
  2
*D10
340
0
  0
ENDTAB
  0
ENDSEC
  0
SECTION
  2
BLOCKS
  0
BLOCK
  5
20
100
AcDbEntity
  8
0
100
AcDbBlockBegin
  2
*Model_Space
 70
0
 10
0.0
 20
0.0
 30
0.0
  3
*Model_Space
  1

  0
ENDBLK
  5
21
100
AcDbEntity
  8
0
100
AcDbBlockEnd
  0
BLOCK
  5
1C
100
AcDbEntity
 67
1
  8
0
100
AcDbBlockBegin
  2
*Paper_Space
 70
0
 10
0.0
 20
0.0
 30
0.0
  3
*Paper_Space
  1

  0
ENDBLK
  5
1D
100
AcDbEntity
 67
1
  8
0
100
AcDbBlockEnd
  0
BLOCK
  5
24
100
AcDbEntity
  8
0
100
AcDbBlockBegin
  2
*Paper_Space0
 70
0
 10
0.0
 20
0.0
 30
0.0
  3
*Paper_Space0
  1

  0
ENDBLK
  5
25
100
AcDbEntity
  8
0
100
AcDbBlockEnd
  0
BLOCK
  5
50
100
AcDbEntity
  8
0
100
AcDbBlockBegin
  2
*D3
 70
0
 10
0.0
 20
0.0
 30
0.0
  3
*D3
  1

  0
LINE
  5
51
100
AcDbEntity
100
AcDbLine
  8
Bemaßung
 62
7
420
16777215
370
0
  6
CONTINUOUS
 10
-705.0
 20
1550.7500106899999537
 30
0.0
 11
-526.25
 21
1550.7500106899999537
 31
0.0
  0
SOLID
  5
52
100
AcDbEntity
100
AcDbTrace
  8
Bemaßung
 62
7
420
16777215
370
0
  6
CONTINUOUS
 10
-705.0
 20
1550.7500106899999537
 30
0.0
 11
-692.0
 21
1552.9146909099999903
 31
0.0
 12
-692.0
 22
1548.5853304699999171
 32
0.0
 13
-692.0
 23
1548.5853304699999171
 33
0.0
 39
0.0
  0
SOLID
  5
53
100
AcDbEntity
100
AcDbTrace
  8
Bemaßung
 62
7
420
16777215
370
0
  6
CONTINUOUS
 10
-315.0
 20
1550.7500106899999537
 30
0.0
 11
-328.0
 21
1548.5853304699999171
 31
0.0
 12
-328.0
 22
1552.9146909099999903
 32
0.0
 13
-328.0
 23
1552.9146909099999903
 33
0.0
 39
0.0
  0
LINE
  5
54
100
AcDbEntity
100
AcDbLine
  8
Bemaßung
 62
7
420
16777215
370
0
  6
CONTINUOUS
 10
-493.75
 20
1550.7500106899999537
 30
0.0
 11
-315.0
 21
1550.7500106899999537
 31
0.0
  0
MTEXT
  5
55
100
AcDbEntity
100
AcDbMText
  8
Bemaßung
 62
7
420
16777215
370
0
  6
CONTINUOUS
 10
-510.0
 20
1560.5000106899999537
 30
0.0
 40
13.0
 41
26.0
 71
5
 72
0
  1
390
  7
standard
 50
0.0
 73
1
 44
1.0
  0
LINE
  5
56
100
AcDbEntity
100
AcDbLine
  8
Bemaßung
 62
7
420
16777215
370
0
  6
CONTINUOUS
 10
-705.0
 20
1578.75
 30
0.0
 11
-705.0
 21
1544.2500106899999537
 31
0.0
  0
LINE
  5
57
100
AcDbEntity
100
AcDbLine
  8
Bemaßung
 62
7
420
16777215
370
0
  6
CONTINUOUS
 10
-315.0
 20
1578.75
 30
0.0
 11
-315.0
 21
1544.2500106899999537
 31
0.0
  0
ENDBLK
  5
58
100
AcDbEntity
  8
0
100
AcDbBlockEnd
  0
BLOCK
  5
59
100
AcDbEntity
  8
0
100
AcDbBlockBegin
  2
*D7
 70
0
 10
0.0
 20
0.0
 30
0.0
  3
*D7
  1

  0
LINE
  5
5A
100
AcDbEntity
100
AcDbLine
  8
Bemaßung
 62
7
420
16777215
370
0
  6
CONTINUOUS
 10
-6.75
 20
1627.0
 30
0.0
 11
36.5
 21
1627.0
 31
0.0
  0
LINE
  5
5B
100
AcDbEntity
100
AcDbLine
  8
Bemaßung
 62
7
420
16777215
370
0
  6
CONTINUOUS
 10
-6.75
 20
1270.0
 30
0.0
 11
36.5
 21
1270.0
 31
0.0
  0
LINE
  5
5C
100
AcDbEntity
100
AcDbLine
  8
Bemaßung
 62
7
420
16777215
370
0
  6
CONTINUOUS
 10
30.0
 20
1627.0
 30
0.0
 11
30.0
 21
1458.25
 31
0.0
  0
SOLID
  5
5D
100
AcDbEntity
100
AcDbTrace
  8
Bemaßung
 62
7
420
16777215
370
0
  6
CONTINUOUS
 10
30.0
 20
1627.0
 30
0.0
 11
32.1646802204000011
 21
1614.0
 31
0.0
 12
27.8353197795999989
 22
1614.0
 32
0.0
 13
27.8353197795999989
 23
1614.0
 33
0.0
 39
0.0
  0
SOLID
  5
5E
100
AcDbEntity
100
AcDbTrace
  8
Bemaßung
 62
7
420
16777215
370
0
  6
CONTINUOUS
 10
30.0
 20
1270.0
 30
0.0
 11
27.8353197795999989
 21
1283.0
 31
0.0
 12
32.1646802204000011
 22
1283.0
 32
0.0
 13
32.1646802204000011
 23
1283.0
 33
0.0
 39
0.0
  0
LINE
  5
5F
100
AcDbEntity
100
AcDbLine
  8
Bemaßung
 62
7
420
16777215
370
0
  6
CONTINUOUS
 10
30.0
 20
1438.75
 30
0.0
 11
30.0
 21
1270.0
 31
0.0
  0
MTEXT
  5
60
100
AcDbEntity
100
AcDbMText
  8
Bemaßung
 62
7
420
16777215
370
0
  6
CONTINUOUS
 10
30.0
 20
1448.5
 30
0.0
 40
13.0
 41
26.0
 71
5
 72
0
  1
357
  7
standard
 50
0.0
 73
1
 44
1.0
  0
ENDBLK
  5
61
100
AcDbEntity
  8
0
100
AcDbBlockEnd
  0
BLOCK
  5
62
100
AcDbEntity
  8
0
100
AcDbBlockBegin
  2
*D11
 70
0
 10
0.0
 20
0.0
 30
0.0
  3
*D11
  1

  0
LINE
  5
63
100
AcDbEntity
100
AcDbLine
  8
Bemaßung
 62
7
420
16777215
370
0
  6
CONTINUOUS
 10
-270.0
 20
1630.25
 30
0.0
 11
-270.0
 21
1666.5
 31
0.0
  0
LINE
  5
64
100
AcDbEntity
100
AcDbLine
  8
Bemaßung
 62
7
420
16777215
370
0
  6
CONTINUOUS
 10
-750.0
 20
1630.25
 30
0.0
 11
-750.0
 21
1666.5
 31
0.0
  0
LINE
  5
65
100
AcDbEntity
100
AcDbLine
  8
Bemaßung
 62
7
420
16777215
370
0
  6
CONTINUOUS
 10
-270.0
 20
1660.0
 30
0.0
 11
-493.0277777779999724
 21
1660.0
 31
0.0
  0
SOLID
  5
66
100
AcDbEntity
100
AcDbTrace
  8
Bemaßung
 62
7
420
16777215
370
0
  6
CONTINUOUS
 10
-270.0
 20
1660.0
 30
0.0
 11
-283.0
 21
1657.8353197799999634
 31
0.0
 12
-283.0
 22
1662.1646802200000366
 32
0.0
 13
-283.0
 23
1662.1646802200000366
 33
0.0
 39
0.0
  0
SOLID
  5
67
100
AcDbEntity
100
AcDbTrace
  8
Bemaßung
 62
7
420
16777215
370
0
  6
CONTINUOUS
 10
-750.0
 20
1660.0
 30
0.0
 11
-737.0
 21
1662.1646802200000366
 31
0.0
 12
-737.0
 22
1657.8353197799999634
 32
0.0
 13
-737.0
 23
1657.8353197799999634
 33
0.0
 39
0.0
  0
LINE
  5
68
100
AcDbEntity
100
AcDbLine
  8
Bemaßung
 62
7
420
16777215
370
0
  6
CONTINUOUS
 10
-526.9722222220000276
 20
1660.0
 30
0.0
 11
-750.0
 21
1660.0
 31
0.0
  0
MTEXT
  5
69
100
AcDbEntity
100
AcDbMText
  8
Bemaßung
 62
7
420
16777215
370
0
  6
CONTINUOUS
 10
-510.0
 20
1660.0
 30
0.0
 40
13.0
 41
27.4444444443999984
 71
5
 72
0
  1
480
  7
standard
 50
0.0
 73
1
 44
1.0
  0
ENDBLK
  5
6A
100
AcDbEntity
  8
0
100
AcDbBlockEnd
  0
BLOCK
  5
6B
100
AcDbEntity
  8
0
100
AcDbBlockBegin
  2
*D6
 70
0
 10
0.0
 20
0.0
 30
0.0
  3
*D6
  1

  0
LINE
  5
6C
100
AcDbEntity
100
AcDbLine
  8
Bemaßung
 62
7
420
16777215
370
0
  6
CONTINUOUS
 10
-1010.0
 20
1231.7202289199999541
 30
0.0
 11
-906.9722222220000276
 21
1231.7202289199999541
 31
0.0
  0
SOLID
  5
6D
100
AcDbEntity
100
AcDbTrace
  8
Bemaßung
 62
7
420
16777215
370
0
  6
CONTINUOUS
 10
-1010.0
 20
1231.7202289199999541
 30
0.0
 11
-997.0
 21
1233.8849091399999907
 31
0.0
 12
-997.0
 22
1229.5555486999999175
 32
0.0
 13
-997.0
 23
1229.5555486999999175
 33
0.0
 39
0.0
  0
SOLID
  5
6E
100
AcDbEntity
100
AcDbTrace
  8
Bemaßung
 62
7
420
16777215
370
0
  6
CONTINUOUS
 10
-770.0
 20
1231.7202289199999541
 30
0.0
 11
-783.0
 21
1229.5555486999999175
 31
0.0
 12
-783.0
 22
1233.8849091399999907
 32
0.0
 13
-783.0
 23
1233.8849091399999907
 33
0.0
 39
0.0
  0
LINE
  5
6F
100
AcDbEntity
100
AcDbLine
  8
Bemaßung
 62
7
420
16777215
370
0
  6
CONTINUOUS
 10
-873.0277777779999724
 20
1231.7202289199999541
 30
0.0
 11
-770.0
 21
1231.7202289199999541
 31
0.0
  0
MTEXT
  5
70
100
AcDbEntity
100
AcDbMText
  8
Bemaßung
 62
7
420
16777215
370
0
  6
CONTINUOUS
 10
-890.0
 20
1241.4702289199999541
 30
0.0
 40
13.0
 41
27.4444444443999984
 71
5
 72
0
  1
240
  7
standard
 50
0.0
 73
1
 44
1.0
  0
LINE
  5
71
100
AcDbEntity
100
AcDbLine
  8
Bemaßung
 62
7
420
16777215
370
0
  6
CONTINUOUS
 10
-1010.0
 20
1266.75
 30
0.0
 11
-1010.0
 21
1225.2202289199999541
 31
0.0
  0
LINE
  5
72
100
AcDbEntity
100
AcDbLine
  8
Bemaßung
 62
7
420
16777215
370
0
  6
CONTINUOUS
 10
-770.0
 20
1266.75
 30
0.0
 11
-770.0
 21
1225.2202289199999541
 31
0.0
  0
ENDBLK
  5
73
100
AcDbEntity
  8
0
100
AcDbBlockEnd
  0
BLOCK
  5
74
100
AcDbEntity
  8
0
100
AcDbBlockBegin
  2
*D9
 70
0
 10
0.0
 20
0.0
 30
0.0
  3
*D9
  1

  0
LINE
  5
75
100
AcDbEntity
100
AcDbLine
  8
Bemaßung
 62
7
420
16777215
370
0
  6
CONTINUOUS
 10
-1337.0
 20
1653.25
 30
0.0
 11
-1337.0
 21
1676.5
 31
0.0
  0
LINE
  5
76
100
AcDbEntity
100
AcDbLine
  8
Bemaßung
 62
7
420
16777215
370
0
  6
CONTINUOUS
 10
-1030.0
 20
1653.25
 30
0.0
 11
-1030.0
 21
1676.5
 31
0.0
  0
LINE
  5
77
100
AcDbEntity
100
AcDbLine
  8
Bemaßung
 62
7
420
16777215
370
0
  6
CONTINUOUS
 10
-1337.0
 20
1670.0
 30
0.0
 11
-1199.75
 21
1670.0
 31
0.0
  0
SOLID
  5
78
100
AcDbEntity
100
AcDbTrace
  8
Bemaßung
 62
7
420
16777215
370
0
  6
CONTINUOUS
 10
-1337.0
 20
1670.0
 30
0.0
 11
-1324.0
 21
1672.1646802200000366
 31
0.0
 12
-1324.0
 22
1667.8353197799999634
 32
0.0
 13
-1324.0
 23
1667.8353197799999634
 33
0.0
 39
0.0
  0
SOLID
  5
79
100
AcDbEntity
100
AcDbTrace
  8
Bemaßung
 62
7
420
16777215
370
0
  6
CONTINUOUS
 10
-1030.0
 20
1670.0
 30
0.0
 11
-1043.0
 21
1667.8353197799999634
 31
0.0
 12
-1043.0
 22
1672.1646802200000366
 32
0.0
 13
-1043.0
 23
1672.1646802200000366
 33
0.0
 39
0.0
  0
LINE
  5
7A
100
AcDbEntity
100
AcDbLine
  8
Bemaßung
 62
7
420
16777215
370
0
  6
CONTINUOUS
 10
-1167.25
 20
1670.0
 30
0.0
 11
-1030.0
 21
1670.0
 31
0.0
  0
MTEXT
  5
7B
100
AcDbEntity
100
AcDbMText
  8
Bemaßung
 62
7
420
16777215
370
0
  6
CONTINUOUS
 10
-1183.5
 20
1670.0
 30
0.0
 40
13.0
 41
26.0
 71
5
 72
0
  1
307
  7
standard
 50
0.0
 73
1
 44
1.0
  0
ENDBLK
  5
7C
100
AcDbEntity
  8
0
100
AcDbBlockEnd
  0
BLOCK
  5
7D
100
AcDbEntity
  8
0
100
AcDbBlockBegin
  2
*D2
 70
0
 10
0.0
 20
0.0
 30
0.0
  3
*D2
  1

  0
LINE
  5
7E
100
AcDbEntity
100
AcDbLine
  8
Bemaßung
 62
7
420
16777215
370
0
  6
CONTINUOUS
 10
-735.0
 20
1602.534554979999939
 30
0.0
 11
-526.9722222220000276
 21
1602.534554979999939
 31
0.0
  0
SOLID
  5
7F
100
AcDbEntity
100
AcDbTrace
  8
Bemaßung
 62
7
420
16777215
370
0
  6
CONTINUOUS
 10
-735.0
 20
1602.534554979999939
 30
0.0
 11
-722.0
 21
1604.6992351999999755
 31
0.0
 12
-722.0
 22
1600.3698747599999024
 32
0.0
 13
-722.0
 23
1600.3698747599999024
 33
0.0
 39
0.0
  0
SOLID
  5
80
100
AcDbEntity
100
AcDbTrace
  8
Bemaßung
 62
7
420
16777215
370
0
  6
CONTINUOUS
 10
-285.0
 20
1602.534554979999939
 30
0.0
 11
-298.0
 21
1600.3698747599999024
 31
0.0
 12
-298.0
 22
1604.6992351999999755
 32
0.0
 13
-298.0
 23
1604.6992351999999755
 33
0.0
 39
0.0
  0
LINE
  5
81
100
AcDbEntity
100
AcDbLine
  8
Bemaßung
 62
7
420
16777215
370
0
  6
CONTINUOUS
 10
-493.0277777779999724
 20
1602.534554979999939
 30
0.0
 11
-285.0
 21
1602.534554979999939
 31
0.0
  0
MTEXT
  5
82
100
AcDbEntity
100
AcDbMText
  8
Bemaßung
 62
7
420
16777215
370
0
  6
CONTINUOUS
 10
-510.0
 20
1612.284554979999939
 30
0.0
 40
13.0
 41
27.4444444443999984
 71
5
 72
0
  1
450
  7
standard
 50
0.0
 73
1
 44
1.0
  0
LINE
  5
83
100
AcDbEntity
100
AcDbLine
  8
Bemaßung
 62
7
420
16777215
370
0
  6
CONTINUOUS
 10
-735.0
 20
1600.25
 30
0.0
 11
-735.0
 21
1609.034554979999939
 31
0.0
  0
LINE
  5
84
100
AcDbEntity
100
AcDbLine
  8
Bemaßung
 62
7
420
16777215
370
0
  6
CONTINUOUS
 10
-285.0
 20
1600.25
 30
0.0
 11
-285.0
 21
1609.034554979999939
 31
0.0
  0
ENDBLK
  5
85
100
AcDbEntity
  8
0
100
AcDbBlockEnd
  0
BLOCK
  5
86
100
AcDbEntity
  8
0
100
AcDbBlockBegin
  2
*D4
 70
0
 10
0.0
 20
0.0
 30
0.0
  3
*D4
  1

  0
LINE
  5
87
100
AcDbEntity
100
AcDbLine
  8
Bemaßung
 62
7
420
16777215
370
0
  6
CONTINUOUS
 10
-678.741879291000032
 20
1582.0
 30
0.0
 11
-678.741879291000032
 21
1458.25
 31
0.0
  0
SOLID
  5
88
100
AcDbEntity
100
AcDbTrace
  8
Bemaßung
 62
7
420
16777215
370
0
  6
CONTINUOUS
 10
-678.741879291000032
 20
1582.0
 30
0.0
 11
-676.5771990709999955
 21
1569.0
 31
0.0
 12
-680.9065595119999443
 22
1569.0
 32
0.0
 13
-680.9065595119999443
 23
1569.0
 33
0.0
 39
0.0
  0
SOLID
  5
89
100
AcDbEntity
100
AcDbTrace
  8
Bemaßung
 62
7
420
16777215
370
0
  6
CONTINUOUS
 10
-678.741879291000032
 20
1315.0
 30
0.0
 11
-680.9065595119999443
 21
1328.0
 31
0.0
 12
-676.5771990709999955
 22
1328.0
 32
0.0
 13
-676.5771990709999955
 23
1328.0
 33
0.0
 39
0.0
  0
LINE
  5
8A
100
AcDbEntity
100
AcDbLine
  8
Bemaßung
 62
7
420
16777215
370
0
  6
CONTINUOUS
 10
-678.741879291000032
 20
1438.75
 30
0.0
 11
-678.741879291000032
 21
1315.0
 31
0.0
  0
MTEXT
  5
8B
100
AcDbEntity
100
AcDbMText
  8
Bemaßung
 62
7
420
16777215
370
0
  6
CONTINUOUS
 10
-688.491879291000032
 20
1448.5
 30
0.0
 40
13.0
 41
26.0
 71
5
 72
0
  1
267
  7
standard
 50
0.0
 73
1
 44
1.0
  0
LINE
  5
8C
100
AcDbEntity
100
AcDbLine
  8
Bemaßung
 62
7
420
16777215
370
0
  6
CONTINUOUS
 10
-701.75
 20
1582.0
 30
0.0
 11
-672.241879291000032
 21
1582.0
 31
0.0
  0
LINE
  5
8D
100
AcDbEntity
100
AcDbLine
  8
Bemaßung
 62
7
420
16777215
370
0
  6
CONTINUOUS
 10
-701.75
 20
1315.0
 30
0.0
 11
-672.241879291000032
 21
1315.0
 31
0.0
  0
ENDBLK
  5
8E
100
AcDbEntity
  8
0
100
AcDbBlockEnd
  0
BLOCK
  5
8F
100
AcDbEntity
  8
0
100
AcDbBlockBegin
  2
*D1
 70
0
 10
0.0
 20
0.0
 30
0.0
  3
*D1
  1

  0
LINE
  5
90
100
AcDbEntity
100
AcDbLine
  8
Bemaßung
 62
7
420
16777215
370
0
  6
CONTINUOUS
 10
-725.0
 20
1280.6399012899998979
 30
0.0
 11
-526.9722222220000276
 21
1280.6399012899998979
 31
0.0
  0
SOLID
  5
91
100
AcDbEntity
100
AcDbTrace
  8
Bemaßung
 62
7
420
16777215
370
0
  6
CONTINUOUS
 10
-725.0
 20
1280.6399012899998979
 30
0.0
 11
-712.0
 21
1282.8045815099999345
 31
0.0
 12
-712.0
 22
1278.4752210700000887
 32
0.0
 13
-712.0
 23
1278.4752210700000887
 33
0.0
 39
0.0
  0
SOLID
  5
92
100
AcDbEntity
100
AcDbTrace
  8
Bemaßung
 62
7
420
16777215
370
0
  6
CONTINUOUS
 10
-295.0
 20
1280.6399012899998979
 30
0.0
 11
-308.0
 21
1278.4752210700000887
 31
0.0
 12
-308.0
 22
1282.8045815099999345
 32
0.0
 13
-308.0
 23
1282.8045815099999345
 33
0.0
 39
0.0
  0
LINE
  5
93
100
AcDbEntity
100
AcDbLine
  8
Bemaßung
 62
7
420
16777215
370
0
  6
CONTINUOUS
 10
-493.0277777779999724
 20
1280.6399012899998979
 30
0.0
 11
-295.0
 21
1280.6399012899998979
 31
0.0
  0
MTEXT
  5
94
100
AcDbEntity
100
AcDbMText
  8
Bemaßung
 62
7
420
16777215
370
0
  6
CONTINUOUS
 10
-510.0
 20
1290.3899012899998979
 30
0.0
 40
13.0
 41
27.4444444443999984
 71
5
 72
0
  1
430
  7
standard
 50
0.0
 73
1
 44
1.0
  0
LINE
  5
95
100
AcDbEntity
100
AcDbLine
  8
Bemaßung
 62
7
420
16777215
370
0
  6
CONTINUOUS
 10
-725.0
 20
1296.75
 30
0.0
 11
-725.0
 21
1274.1399012899998979
 31
0.0
  0
LINE
  5
96
100
AcDbEntity
100
AcDbLine
  8
Bemaßung
 62
7
420
16777215
370
0
  6
CONTINUOUS
 10
-295.0
 20
1296.75
 30
0.0
 11
-295.0
 21
1274.1399012899998979
 31
0.0
  0
ENDBLK
  5
97
100
AcDbEntity
  8
0
100
AcDbBlockEnd
  0
BLOCK
  5
98
100
AcDbEntity
  8
0
100
AcDbBlockBegin
  2
*D5
 70
0
 10
0.0
 20
0.0
 30
0.0
  3
*D5
  1

  0
LINE
  5
99
100
AcDbEntity
100
AcDbLine
  8
Bemaßung
 62
7
420
16777215
370
0
  6
CONTINUOUS
 10
-750.0
 20
1233.5696769300000142
 30
0.0
 11
-526.9722222220000276
 21
1233.5696769300000142
 31
0.0
  0
SOLID
  5
9A
100
AcDbEntity
100
AcDbTrace
  8
Bemaßung
 62
7
420
16777215
370
0
  6
CONTINUOUS
 10
-750.0
 20
1233.5696769300000142
 30
0.0
 11
-737.0
 21
1235.7343571500000508
 31
0.0
 12
-737.0
 22
1231.4049967099999776
 32
0.0
 13
-737.0
 23
1231.4049967099999776
 33
0.0
 39
0.0
  0
SOLID
  5
9B
100
AcDbEntity
100
AcDbTrace
  8
Bemaßung
 62
7
420
16777215
370
0
  6
CONTINUOUS
 10
-270.0
 20
1233.5696769300000142
 30
0.0
 11
-283.0
 21
1231.4049967099999776
 31
0.0
 12
-283.0
 22
1235.7343571500000508
 32
0.0
 13
-283.0
 23
1235.7343571500000508
 33
0.0
 39
0.0
  0
LINE
  5
9C
100
AcDbEntity
100
AcDbLine
  8
Bemaßung
 62
7
420
16777215
370
0
  6
CONTINUOUS
 10
-493.0277777779999724
 20
1233.5696769300000142
 30
0.0
 11
-270.0
 21
1233.5696769300000142
 31
0.0
  0
MTEXT
  5
9D
100
AcDbEntity
100
AcDbMText
  8
Bemaßung
 62
7
420
16777215
370
0
  6
CONTINUOUS
 10
-510.0
 20
1243.3196769300000142
 30
0.0
 40
13.0
 41
27.4444444443999984
 71
5
 72
0
  1
480
  7
standard
 50
0.0
 73
1
 44
1.0
  0
LINE
  5
9E
100
AcDbEntity
100
AcDbLine
  8
Bemaßung
 62
7
420
16777215
370
0
  6
CONTINUOUS
 10
-750.0
 20
1266.75
 30
0.0
 11
-750.0
 21
1227.0696769300000142
 31
0.0
  0
LINE
  5
9F
100
AcDbEntity
100
AcDbLine
  8
Bemaßung
 62
7
420
16777215
370
0
  6
CONTINUOUS
 10
-270.0
 20
1266.75
 30
0.0
 11
-270.0
 21
1227.0696769300000142
 31
0.0
  0
ENDBLK
  5
A0
100
AcDbEntity
  8
0
100
AcDbBlockEnd
  0
BLOCK
  5
A1
100
AcDbEntity
  8
0
100
AcDbBlockBegin
  2
*D8
 70
0
 10
0.0
 20
0.0
 30
0.0
  3
*D8
  1

  0
LINE
  5
A2
100
AcDbEntity
100
AcDbLine
  8
Bemaßung
 62
7
420
16777215
370
0
  6
CONTINUOUS
 10
-250.0
 20
1630.25
 30
0.0
 11
-250.0
 21
1656.5
 31
0.0
  0
LINE
  5
A3
100
AcDbEntity
100
AcDbLine
  8
Bemaßung
 62
7
420
16777215
370
0
  6
CONTINUOUS
 10
-10.0
 20
1630.25
 30
0.0
 11
-10.0
 21
1656.5
 31
0.0
  0
LINE
  5
A4
100
AcDbEntity
100
AcDbLine
  8
Bemaßung
 62
7
420
16777215
370
0
  6
CONTINUOUS
 10
-250.0
 20
1650.0
 30
0.0
 11
-146.9722222219999992
 21
1650.0
 31
0.0
  0
SOLID
  5
A5
100
AcDbEntity
100
AcDbTrace
  8
Bemaßung
 62
7
420
16777215
370
0
  6
CONTINUOUS
 10
-250.0
 20
1650.0
 30
0.0
 11
-237.0
 21
1652.1646802200000366
 31
0.0
 12
-237.0
 22
1647.8353197799999634
 32
0.0
 13
-237.0
 23
1647.8353197799999634
 33
0.0
 39
0.0
  0
SOLID
  5
A6
100
AcDbEntity
100
AcDbTrace
  8
Bemaßung
 62
7
420
16777215
370
0
  6
CONTINUOUS
 10
-10.0
 20
1650.0
 30
0.0
 11
-23.0
 21
1647.8353197799999634
 31
0.0
 12
-23.0
 22
1652.1646802200000366
 32
0.0
 13
-23.0
 23
1652.1646802200000366
 33
0.0
 39
0.0
  0
LINE
  5
A7
100
AcDbEntity
100
AcDbLine
  8
Bemaßung
 62
7
420
16777215
370
0
  6
CONTINUOUS
 10
-113.0277777780000008
 20
1650.0
 30
0.0
 11
-10.0
 21
1650.0
 31
0.0
  0
MTEXT
  5
A8
100
AcDbEntity
100
AcDbMText
  8
Bemaßung
 62
7
420
16777215
370
0
  6
CONTINUOUS
 10
-130.0
 20
1650.0
 30
0.0
 40
13.0
 41
27.4444444443999984
 71
5
 72
0
  1
240
  7
standard
 50
0.0
 73
1
 44
1.0
  0
ENDBLK
  5
A9
100
AcDbEntity
  8
0
100
AcDbBlockEnd
  0
BLOCK
  5
AA
100
AcDbEntity
  8
0
100
AcDbBlockBegin
  2
*D10
 70
0
 10
0.0
 20
0.0
 30
0.0
  3
*D10
  1

  0
LINE
  5
AB
100
AcDbEntity
100
AcDbLine
  8
Bemaßung
 62
7
420
16777215
370
0
  6
CONTINUOUS
 10
-1340.25
 20
1650.0
 30
0.0
 11
-1376.5
 21
1650.0
 31
0.0
  0
LINE
  5
AC
100
AcDbEntity
100
AcDbLine
  8
Bemaßung
 62
7
420
16777215
370
0
  6
CONTINUOUS
 10
-1340.25
 20
1200.0
 30
0.0
 11
-1376.5
 21
1200.0
 31
0.0
  0
LINE
  5
AD
100
AcDbEntity
100
AcDbLine
  8
Bemaßung
 62
7
420
16777215
370
0
  6
CONTINUOUS
 10
-1370.0
 20
1650.0
 30
0.0
 11
-1370.0
 21
1434.75
 31
0.0
  0
SOLID
  5
AE
100
AcDbEntity
100
AcDbTrace
  8
Bemaßung
 62
7
420
16777215
370
0
  6
CONTINUOUS
 10
-1370.0
 20
1650.0
 30
0.0
 11
-1367.8353197799999634
 21
1637.0
 31
0.0
 12
-1372.1646802200000366
 22
1637.0
 32
0.0
 13
-1372.1646802200000366
 23
1637.0
 33
0.0
 39
0.0
  0
SOLID
  5
AF
100
AcDbEntity
100
AcDbTrace
  8
Bemaßung
 62
7
420
16777215
370
0
  6
CONTINUOUS
 10
-1370.0
 20
1200.0
 30
0.0
 11
-1372.1646802200000366
 21
1213.0
 31
0.0
 12
-1367.8353197799999634
 22
1213.0
 32
0.0
 13
-1367.8353197799999634
 23
1213.0
 33
0.0
 39
0.0
  0
LINE
  5
B0
100
AcDbEntity
100
AcDbLine
  8
Bemaßung
 62
7
420
16777215
370
0
  6
CONTINUOUS
 10
-1370.0
 20
1415.25
 30
0.0
 11
-1370.0
 21
1200.0
 31
0.0
  0
MTEXT
  5
B1
100
AcDbEntity
100
AcDbMText
  8
Bemaßung
 62
7
420
16777215
370
0
  6
CONTINUOUS
 10
-1370.0
 20
1425.0
 30
0.0
 40
13.0
 41
27.4444444443999984
 71
5
 72
0
  1
450
  7
standard
 50
0.0
 73
1
 44
1.0
  0
ENDBLK
  5
B2
100
AcDbEntity
  8
0
100
AcDbBlockEnd
  0
ENDSEC
  0
SECTION
  2
ENTITIES
  0
LINE
  5
B3
100
AcDbEntity
100
AcDbLine
  8
0
 62
256
370
-1
  6
ByLayer
 10
835.0
 20
1355.0
 30
0.0
 11
835.0
 21
1088.0
 31
0.0
  0
LINE
  5
B4
100
AcDbEntity
100
AcDbLine
  8
0
 62
256
370
-1
  6
ByLayer
 10
835.0
 20
1088.0
 30
0.0
 11
445.0
 21
1088.0
 31
0.0
  0
LINE
  5
B5
100
AcDbEntity
100
AcDbLine
  8
0
 62
256
370
-1
  6
ByLayer
 10
445.0
 20
1088.0
 30
0.0
 11
445.0
 21
1355.0
 31
0.0
  0
LINE
  5
B6
100
AcDbEntity
100
AcDbLine
  8
0
 62
256
370
-1
  6
ByLayer
 10
445.0
 20
1355.0
 30
0.0
 11
835.0
 21
1355.0
 31
0.0
  0
LINE
  5
B7
100
AcDbEntity
100
AcDbLine
  8
0
 62
256
370
-1
  6
ByLayer
 10
400.0
 20
1400.0
 30
0.0
 11
880.0
 21
1400.0
 31
0.0
  0
LINE
  5
B8
100
AcDbEntity
100
AcDbLine
  8
0
 62
256
370
-1
  6
ByLayer
 10
880.0
 20
1400.0
 30
0.0
 11
880.0
 21
1043.0
 31
0.0
  0
LINE
  5
B9
100
AcDbEntity
100
AcDbLine
  8
0
 62
256
370
-1
  6
ByLayer
 10
400.0
 20
1043.0
 30
0.0
 11
880.0
 21
1043.0
 31
0.0
  0
LINE
  5
BA
100
AcDbEntity
100
AcDbLine
  8
0
 62
256
370
-1
  6
ByLayer
 10
400.0
 20
1043.0
 30
0.0
 11
400.0
 21
1400.0
 31
0.0
  0
LWPOLYLINE
  5
BB
  8
0
 62
1
420
16711680
370
-1
  6
ByLayer
100
AcDbEntity
100
AcDbPolyline
 90
13
 70
0
 10
425.0
 20
1073.0
 10
425.0
 20
1370.0
 10
415.0
 20
1370.0
 10
415.0
 20
1073.0
 10
415.0
 20
1063.0
 10
425.0
 20
1063.0
 10
855.0
 20
1063.0
 10
865.0
 20
1063.0
 10
865.0
 20
1073.0
 10
865.0
 20
1370.0
 10
855.0
 20
1370.0
 10
855.0
 20
1073.0
 10
425.0
 20
1073.0
  0
DIMENSION
  5
BC
100
AcDbEntity
  8
Bemaßung
 62
256
370
-1
  6
ByLayer
100
AcDbDimension
 10
425.0
 20
1016.5
 30
0.0
 11
640.0
 21
1026.25
 31
0.0
 70
1
 71
5
 72
1
 41
1.0
 42
0.0
  1

  3
Standard
100
AcDbAlignedDimension
 13
425.0
 23
1073.0
 33
0.0
 14
855.0
 24
1073.0
 34
0.0
  0
DIMENSION
  5
BD
100
AcDbEntity
  8
Bemaßung
 62
256
370
-1
  6
ByLayer
100
AcDbDimension
 10
415.0
 20
983.0
 30
0.0
 11
640.0
 21
992.75
 31
0.0
 70
1
 71
5
 72
1
 41
1.0
 42
0.0
  1

  3
Standard
100
AcDbAlignedDimension
 13
415.0
 23
1063.0
 33
0.0
 14
865.0
 24
1063.0
 34
0.0
  0
DIMENSION
  5
BE
100
AcDbEntity
  8
Bemaßung
 62
256
370
-1
  6
ByLayer
100
AcDbDimension
 10
330.0
 20
1063.0
 30
0.0
 11
320.25
 21
1216.5
 31
0.0
 70
1
 71
5
 72
1
 41
1.0
 42
0.0
  1

  3
Standard
100
AcDbAlignedDimension
 13
415.0
 23
1063.0
 33
0.0
 14
415.0
 24
1370.0
 34
0.0
  0
DIMENSION
  5
BF
100
AcDbEntity
  8
Bemaßung
 62
256
370
-1
  6
ByLayer
100
AcDbDimension
 10
370.0
 20
1370.0
 30
0.0
 11
360.25
 21
1221.5
 31
0.0
 70
1
 71
5
 72
1
 41
1.0
 42
0.0
  1

  3
Standard
100
AcDbAlignedDimension
 13
425.0
 23
1370.0
 33
0.0
 14
425.0
 24
1073.0
 34
0.0
  0
LINE
  5
C0
100
AcDbEntity
100
AcDbLine
  8
0
 62
256
370
-1
  6
ByLayer
 10
260.0
 20
1400.0
 30
0.0
 11
20.0
 21
1400.0
 31
0.0
  0
LINE
  5
C1
100
AcDbEntity
100
AcDbLine
  8
0
 62
256
370
-1
  6
ByLayer
 10
20.0
 20
1400.0
 30
0.0
 11
20.0
 21
1241.5
 31
0.0
  0
LINE
  5
C2
100
AcDbEntity
100
AcDbLine
  8
0
 62
256
370
-1
  6
ByLayer
 10
20.0
 20
1043.0
 30
0.0
 11
260.0
 21
1043.0
 31
0.0
  0
LINE
  5
C3
100
AcDbEntity
100
AcDbLine
  8
0
 62
256
370
-1
  6
ByLayer
 10
260.0
 20
1043.0
 30
0.0
 11
260.0
 21
1400.0
 31
0.0
  0
LINE
  5
C4
100
AcDbEntity
100
AcDbLine
  8
0
 62
256
370
-1
  6
ByLayer
 10
20.0
 20
1201.5
 30
0.0
 11
20.0
 21
1043.0
 31
0.0
  0
ARC
  5
C5
100
AcDbEntity
  8
0
 62
256
370
-1
  6
ByLayer
100
AcDbCircle
 10
20.0
 20
1221.5
 30
0.0
 40
20.0
100
AcDbArc
 50
270.0
 51
90.0
  0
DIMENSION
  5
C6
100
AcDbEntity
  8
Bemaßung
 62
256
370
-1
  6
ByLayer
100
AcDbDimension
 10
260.0
 20
1004.7202289199999541
 30
0.0
 11
140.0
 21
1014.4702289199999541
 31
0.0
 70
0
 71
5
 72
1
 41
1.0
 42
0.0
  1

  3
Standard
100
AcDbAlignedDimension
 13
20.0
 23
1043.0
 33
0.0
 14
260.0
 24
1043.0
 34
0.0
 50
0.0
100
AcDbRotatedDimension
  0
DIMENSION
  5
C7
100
AcDbEntity
  8
Bemaßung
 62
256
370
-1
  6
ByLayer
100
AcDbDimension
 10
865.0
 20
1430.0
 30
0.0
 11
874.75
 21
1439.75
 31
0.0
 70
1
 71
5
 72
1
 41
1.0
 42
0.0
  1

  3
Standard
100
AcDbAlignedDimension
 13
865.0
 23
1370.0
 33
0.0
 14
855.0
 24
1370.0
 34
0.0
  0
DIMENSION
  5
C8
100
AcDbEntity
  8
Bemaßung
 62
256
370
-1
  6
ByLayer
100
AcDbDimension
 10
-20.0
 20
1043.0
 30
0.0
 11
-29.75
 21
1221.5
 31
0.0
 70
1
 71
5
 72
1
 41
1.0
 42
0.0
  1

  3
Standard
100
AcDbAlignedDimension
 13
20.0
 23
1043.0
 33
0.0
 14
20.0
 24
1400.0
 34
0.0
  0
DIMENSION
  5
C9
100
AcDbEntity
  8
Bemaßung
 62
256
370
-1
  6
ByLayer
100
AcDbDimension
 10
10.0
 20
1201.5
 30
0.0
 11
0.25
 21
1221.5
 31
0.0
 70
1
 71
5
 72
1
 41
1.0
 42
0.0
  1

  3
Standard
100
AcDbAlignedDimension
 13
20.0
 23
1201.5
 33
0.0
 14
20.0
 24
1241.5
 34
0.0
  0
LINE
  5
CA
100
AcDbEntity
100
AcDbLine
  8
0
 62
256
370
-1
  6
ByLayer
 10
400.0
 20
317.0
 30
0.0
 11
512.5
 21
317.0
 31
0.0
  0
LINE
  5
CB
100
AcDbEntity
100
AcDbLine
  8
0
 62
256
370
-1
  6
ByLayer
 10
850.0
 20
317.0
 30
0.0
 11
850.0
 21
10.0
 31
0.0
  0
LINE
  5
CC
100
AcDbEntity
100
AcDbLine
  8
0
 62
256
370
-1
  6
ByLayer
 10
850.0
 20
10.0
 30
0.0
 11
400.0
 21
10.0
 31
0.0
  0
LINE
  5
CD
100
AcDbEntity
100
AcDbLine
  8
0
 62
256
370
-1
  6
ByLayer
 10
400.0
 20
10.0
 30
0.0
 11
400.0
 21
317.0
 31
0.0
  0
LINE
  5
CE
100
AcDbEntity
100
AcDbLine
  8
0
 62
256
370
-1
  6
ByLayer
 10
737.5
 20
317.0
 30
0.0
 11
675.0
 21
261.0983005600000979
 31
0.0
  0
LINE
  5
CF
100
AcDbEntity
100
AcDbLine
  8
0
 62
256
370
-1
  6
ByLayer
 10
512.5
 20
317.0
 30
0.0
 11
575.0
 21
261.0983005600000979
 31
0.0
  0
ARC
  5
D0
100
AcDbEntity
  8
0
 62
256
370
-1
  6
ByLayer
100
AcDbCircle
 10
625.0
 20
317.0
 30
0.0
 40
75.0
100
AcDbArc
 50
228.1896851039999774
 51
311.8103148957999906
  0
LINE
  5
D1
100
AcDbEntity
100
AcDbLine
  8
0
 62
256
370
-1
  6
ByLayer
 10
737.5
 20
317.0
 30
0.0
 11
850.0
 21
317.0
 31
0.0
  0
DIMENSION
  5
D2
100
AcDbEntity
  8
Bemaßung
 62
256
370
-1
  6
ByLayer
100
AcDbDimension
 10
890.0
 20
317.0
 30
0.0
 11
880.25
 21
163.5
 31
0.0
 70
1
 71
5
 72
1
 41
1.0
 42
0.0
  1

  3
Standard
100
AcDbAlignedDimension
 13
850.0
 23
317.0
 33
0.0
 14
850.0
 24
10.0
 34
0.0
  0
DIMENSION
  5
D3
100
AcDbEntity
  8
Bemaßung
 62
256
370
-1
  6
ByLayer
100
AcDbDimension
 10
850.0
 20
350.0
 30
0.0
 11
625.0
 21
359.75
 31
0.0
 70
1
 71
5
 72
1
 41
1.0
 42
0.0
  1

  3
Standard
100
AcDbAlignedDimension
 13
850.0
 23
317.0
 33
0.0
 14
400.0
 24
317.0
 34
0.0
  0
DIMENSION
  5
D4
100
AcDbEntity
  8
Bemaßung
 62
256
370
-1
  6
ByLayer
100
AcDbDimension
 10
624.9999999998690328
 20
242.0
 30
0.0
 11
615.2499999999345164
 21
279.500000000017053
 31
0.0
 70
1
 71
5
 72
1
 41
1.0
 42
0.0
  1

  3
Standard
100
AcDbAlignedDimension
 13
624.9999999998690328
 23
242.0
 33
0.0
 14
625.0
 24
317.0
 34
0.0
  0
DIMENSION
  5
D5
100
AcDbEntity
  8
Bemaßung
 62
256
370
-1
  6
ByLayer
100
AcDbDimension
 10
512.5
 20
320.0
 30
0.0
 11
625.0
 21
329.75
 31
0.0
 70
1
 71
5
 72
1
 41
1.0
 42
0.0
  1

  3
Standard
100
AcDbAlignedDimension
 13
512.5
 23
317.0
 33
0.0
 14
737.5
 24
317.0
 34
0.0
  0
LINE
  5
D6
100
AcDbEntity
100
AcDbLine
  8
0
 62
256
370
-1
  6
ByLayer
 10
835.0
 20
825.0000000000002274
 30
0.0
 11
834.9999999999998863
 21
558.0
 31
0.0
  0
LINE
  5
D7
100
AcDbEntity
100
AcDbLine
  8
0
 62
256
370
-1
  6
ByLayer
 10
834.9999999999998863
 20
558.0
 30
0.0
 11
445.0
 21
558.0000000000002274
 31
0.0
  0
LINE
  5
D8
100
AcDbEntity
100
AcDbLine
  8
0
 62
256
370
-1
  6
ByLayer
 10
445.0
 20
558.0000000000002274
 30
0.0
 11
445.0
 21
825.0
 31
0.0
  0
LINE
  5
D9
100
AcDbEntity
100
AcDbLine
  8
0
 62
256
370
-1
  6
ByLayer
 10
445.0
 20
825.0
 30
0.0
 11
835.0
 21
825.0000000000002274
 31
0.0
  0
LINE
  5
DA
100
AcDbEntity
100
AcDbLine
  8
0
 62
256
370
-1
  6
ByLayer
 10
400.0
 20
870.0
 30
0.0
 11
880.0
 21
870.0
 31
0.0
  0
LINE
  5
DB
100
AcDbEntity
100
AcDbLine
  8
0
 62
256
370
-1
  6
ByLayer
 10
880.0
 20
870.0
 30
0.0
 11
879.9999999999998863
 21
513.0
 31
0.0
  0
LINE
  5
DC
100
AcDbEntity
100
AcDbLine
  8
0
 62
256
370
-1
  6
ByLayer
 10
400.0
 20
513.0000000000002274
 30
0.0
 11
879.9999999999998863
 21
513.0
 31
0.0
  0
LINE
  5
DD
100
AcDbEntity
100
AcDbLine
  8
0
 62
256
370
-1
  6
ByLayer
 10
400.0
 20
513.0000000000002274
 30
0.0
 11
400.0
 21
870.0
 31
0.0
  0
DIMENSION
  5
DE
100
AcDbEntity
  8
Bemaßung
 62
256
370
-1
  6
ByLayer
100
AcDbDimension
 10
880.0
 20
476.5696769300000142
 30
0.0
 11
640.0
 21
486.3196769300001279
 31
0.0
 70
0
 71
5
 72
1
 41
1.0
 42
0.0
  1

  3
Standard
100
AcDbAlignedDimension
 13
400.0
 23
513.0000000000002274
 33
0.0
 14
879.9999999999998863
 24
513.0
 34
0.0
 50
0.0
100
AcDbRotatedDimension
  0
DIMENSION
  5
DF
100
AcDbEntity
  8
Bemaßung
 62
256
370
-1
  6
ByLayer
100
AcDbDimension
 10
915.6881648936188185
 20
513.0
 30
0.0
 11
905.9381648936189322
 21
691.5
 31
0.0
 70
1
 71
5
 72
1
 41
1.0
 42
0.0
  1

  3
Standard
100
AcDbAlignedDimension
 13
879.9999999999998863
 23
513.0
 33
0.0
 14
880.0
 24
870.0
 34
0.0
  0
DIMENSION
  5
E0
100
AcDbEntity
  8
Bemaßung
 62
256
370
-1
  6
ByLayer
100
AcDbDimension
 10
445.0
 20
578.4749980394662998
 30
0.0
 11
640.0
 21
588.2249980394661861
 31
0.0
 70
1
 71
5
 72
1
 41
1.0
 42
0.0
  1

  3
Standard
100
AcDbAlignedDimension
 13
445.0
 23
558.0000000000002274
 33
0.0
 14
834.9999999999998863
 24
558.0
 34
0.0
  0
DIMENSION
  5
E1
100
AcDbEntity
  8
Bemaßung
 62
256
370
-1
  6
ByLayer
100
AcDbDimension
 10
495.6881648936189322
 20
825.0
 30
0.0
 11
485.9381648936189322
 21
691.5000000000001137
 31
0.0
 70
1
 71
5
 72
1
 41
1.0
 42
0.0
  1

  3
Standard
100
AcDbAlignedDimension
 13
445.0
 23
825.0
 33
0.0
 14
445.0
 24
558.0000000000002274
 34
0.0
  0
LWPOLYLINE
  5
E2
  8
0
 62
1
420
16711680
370
-1
  6
ByLayer
100
AcDbEntity
100
AcDbPolyline
 90
13
 70
0
 10
415.0
 20
543.0000000000002274
 10
415.0
 20
840.0000000000002274
 10
425.0
 20
840.0
 10
425.0
 20
543.0000000000002274
 10
855.0
 20
543.0
 10
855.0
 20
840.0000000000002274
 10
865.0
 20
840.0000000000002274
 10
865.0
 20
543.0000000000001137
 10
865.0
 20
533.0000000000002274
 10
855.0
 20
533.0000000000002274
 10
425.0
 20
533.0000000000002274
 10
415.0
 20
533.0000000000002274
 10
415.0
 20
543.0000000000002274
  0
LINE
  5
E3
100
AcDbEntity
100
AcDbLine
  8
0
 62
256
370
-1
  6
ByLayer
 10
1190.0
 20
1400.0
 30
0.0
 11
950.0
 21
1400.0
 31
0.0
  0
LINE
  5
E4
100
AcDbEntity
100
AcDbLine
  8
0
 62
256
370
-1
  6
ByLayer
 10
950.0
 20
1400.0
 30
0.0
 11
950.0
 21
1043.0
 31
0.0
  0
LINE
  5
E5
100
AcDbEntity
100
AcDbLine
  8
0
 62
256
370
-1
  6
ByLayer
 10
950.0
 20
1043.0
 30
0.0
 11
1190.0
 21
1043.0
 31
0.0
  0
LINE
  5
E6
100
AcDbEntity
100
AcDbLine
  8
0
 62
256
370
-1
  6
ByLayer
 10
1190.0
 20
1043.0
 30
0.0
 11
1190.0
 21
1201.5
 31
0.0
  0
LINE
  5
E7
100
AcDbEntity
100
AcDbLine
  8
0
 62
256
370
-1
  6
ByLayer
 10
1190.0
 20
1241.5
 30
0.0
 11
1190.0
 21
1400.0
 31
0.0
  0
ARC
  5
E8
100
AcDbEntity
  8
0
 62
256
370
-1
  6
ByLayer
100
AcDbCircle
 10
1190.0
 20
1221.5
 30
0.0
 40
20.0
100
AcDbArc
 50
90.0
 51
270.0
  0
DIMENSION
  5
E9
100
AcDbEntity
  8
Bemaßung
 62
256
370
-1
  6
ByLayer
100
AcDbDimension
 10
1230.0
 20
1400.0
 30
0.0
 11
1250.0
 21
1223.0
 31
0.0
 70
1
 71
5
 72
0
 41
1.0
 42
0.0
  1

  3
Standard
100
AcDbAlignedDimension
 13
1190.0
 23
1400.0
 33
0.0
 14
1190.0
 24
1043.0
 34
0.0
  0
DIMENSION
  5
EA
100
AcDbEntity
  8
Bemaßung
 62
256
370
-1
  6
ByLayer
100
AcDbDimension
 10
950.0
 20
1423.0
 30
0.0
 11
1070.0
 21
1443.0
 31
0.0
 70
1
 71
5
 72
0
 41
1.0
 42
0.0
  1

  3
Standard
100
AcDbAlignedDimension
 13
950.0
 23
1400.0
 33
0.0
 14
1190.0
 24
1400.0
 34
0.0
  0
ENDSEC
  0
SECTION
  2
OBJECTS
  0
DICTIONARY
  5
C
100
AcDbDictionary
280
0
281
1
  3
ACAD_GROUP
350
D
  3
ACAD_LAYOUT
350
1A
  3
ACAD_MLINESTYLE
350
17
  3
ACAD_PLOTSETTINGS
350
19
  3
ACAD_PLOTSTYLENAME
350
E
  3
AcDbVariableDictionary
350
EB
  0
DICTIONARY
  5
D
100
AcDbDictionary
280
0
281
1
  0
ACDBDICTIONARYWDFLT
  5
E
100
AcDbDictionary
281
1
  3
Normal
350
F
100
AcDbDictionaryWithDefault
340
F
  0
ACDBPLACEHOLDER
  5
F
  0
DICTIONARY
  5
17
100
AcDbDictionary
280
0
281
1
  3
Standard
350
18
  0
MLINESTYLE
  5
18
100
AcDbMlineStyle
  2
STANDARD
 70
0
  3

 62
256
 51
90.0
 52
90.0
 71
2
 49
0.5
 62
256
  6
BYLAYER
 49
-0.5
 62
256
  6
BYLAYER
  0
DICTIONARY
  5
19
100
AcDbDictionary
280
0
281
1
  0
DICTIONARY
  5
1A
100
AcDbDictionary
281
1
  3
Layout1
350
1E
  3
Layout2
350
26
  3
Model
350
22
  0
LAYOUT
  5
1E
100
AcDbPlotSettings
  1

  2
C:\Program Files\AutoCAD 2002\plotters\DWF ePlot (optimized for plotting).pc3
  4

  6

 40
0.0
 41
0.0
 42
0.0
 43
0.0
 44
0.0
 45
0.0
 46
0.0
 47
0.0
 48
0.0
 49
0.0
140
0.0
141
0.0
142
1.0
143
1.0
 70
688
 72
0
 73
0
 74
5
  7

 75
16
147
1.0
148
0.0
149
0.0
100
AcDbLayout
  1
Layout1
 70
1
 71
1
 10
0.0
 20
0.0
 11
420.0
 21
297.0
 12
0.0
 22
0.0
 32
0.0
 14
100000000000000000000.0
 24
100000000000000000000.0
 34
100000000000000000000.0
 15
-100000000000000000000.0
 25
-100000000000000000000.0
 35
-100000000000000000000.0
146
0.0
 13
0.0
 23
0.0
 33
0.0
 16
1.0
 26
0.0
 36
0.0
 17
0.0
 27
1.0
 37
0.0
 76
0
330
1B
  0
LAYOUT
  5
22
100
AcDbPlotSettings
  1

  2
C:\Program Files\AutoCAD 2002\plotters\DWF ePlot (optimized for plotting).pc3
  4

  6

 40
0.0
 41
0.0
 42
0.0
 43
0.0
 44
0.0
 45
0.0
 46
0.0
 47
0.0
 48
0.0
 49
0.0
140
0.0
141
0.0
142
1.0
143
1.0
 70
1712
 72
0
 73
0
 74
0
  7

 75
0
147
1.0
148
0.0
149
0.0
100
AcDbLayout
  1
Model
 70
1
 71
0
 10
0.0
 20
0.0
 11
12.0
 21
9.0
 12
0.0
 22
0.0
 32
0.0
 14
0.0
 24
0.0
 34
0.0
 15
0.0
 25
0.0
 35
0.0
146
0.0
 13
0.0
 23
0.0
 33
0.0
 16
1.0
 26
0.0
 36
0.0
 17
0.0
 27
1.0
 37
0.0
 76
0
330
1F
  0
LAYOUT
  5
26
100
AcDbPlotSettings
  1

  2
C:\Program Files\AutoCAD 2002\plotters\DWF ePlot (optimized for plotting).pc3
  4

  6

 40
0.0
 41
0.0
 42
0.0
 43
0.0
 44
0.0
 45
0.0
 46
0.0
 47
0.0
 48
0.0
 49
0.0
140
0.0
141
0.0
142
1.0
143
1.0
 70
688
 72
0
 73
0
 74
5
  7

 75
16
147
1.0
148
0.0
149
0.0
100
AcDbLayout
  1
Layout2
 70
1
 71
2
 10
0.0
 20
0.0
 11
12.0
 21
9.0
 12
0.0
 22
0.0
 32
0.0
 14
0.0
 24
0.0
 34
0.0
 15
0.0
 25
0.0
 35
0.0
146
0.0
 13
0.0
 23
0.0
 33
0.0
 16
1.0
 26
0.0
 36
0.0
 17
0.0
 27
1.0
 37
0.0
 76
0
330
23
  0
DICTIONARY
  5
EB
100
AcDbDictionary
281
1
  3
DIMASSOC
350
ED
  3
HIDETEXT
350
EC
  0
DICTIONARYVAR
  5
EC
100
DictionaryVariables
280
0
  1
2
  0
DICTIONARYVAR
  5
ED
100
DictionaryVariables
280
0
  1
1
  0
ENDSEC
  0
EOF
