999
dxflib 2.2.0.0
  0
SECTION
  2
HEADER
  9
$ACADVER
  1
AC1009
  9
$SPLINESEGS
 70
8
  9
$DIMEXE
 40
12.5
  9
$DIMZIN
 70
8
  9
$GRIDMODE
 70
1
  9
$DIMASZ
 40
25.0
  9
$DIMGAP
 40
6.25
  9
$DIMTXT
 40
25.0
  9
$GRIDUNIT
 10
0.0
 20
0.0
  9
$DIMEXO
 40
6.25
  9
$LUPREC
 70
4
  9
$CLAYER
  8
0
  9
$AUPREC
 70
2
  9
$PLIMMIN
 10
0.0
 20
0.0
  9
$LUNITS
 70
2
  9
$PLIMMAX
 10
210.0
 20
297.0
  9
$DIMSTYLE
  2
Standard
  9
$DIMBLK
  1

  9
$AUNITS
 70
0
  9
$CLAYER
  8
AUX
  0
ENDSEC
  0
SECTION
  2
TABLES
  0
TABLE
  2
VPORT
 70
1
  0
VPORT
  2
*Active
 70
0
 10
0.0
 20
0.0
 11
1.0
 21
1.0
 12
286.3055555555554861
 22
148.5
 13
0.0
 23
0.0
 14
10.0
 24
10.0
 15
10.0
 25
10.0
 16
0.0
 26
0.0
 36
1.0
 17
0.0
 27
0.0
 37
0.0
 40
297.0
 41
1.92798353909465
 42
50.0
 43
0.0
 44
0.0
 50
0.0
 51
0.0
 71
0
 72
100
 73
1
 74
3
 75
1
 76
1
 77
0
 78
0
  0
ENDTAB
  0
TABLE
  2
LTYPE
 70
19
  0
LTYPE
  2
CONTINUOUS
 70
0
  3
Solid line
 72
65
 73
0
 40
0.0
  0
LTYPE
  2
DOT
 70
0
  3
Dot . . . . . . . . . . . . . . . . . . . . . .
 72
65
 73
2
 40
6.3499999999999996
 49
0.0
 49
-6.3499999999999996
  0
LTYPE
  2
DOT2
 70
0
  3
Dot (.5x) .....................................
 72
65
 73
2
 40
3.1749999999999998
 49
0.0
 49
-3.1749999999999998
  0
LTYPE
  2
DOTX2
 70
0
  3
Dot (2x) .  .  .  .  .  .  .  .  .  .  .  .  .
 72
65
 73
2
 40
12.6999999999999993
 49
0.0
 49
-12.6999999999999993
  0
LTYPE
  2
DASHED
 70
0
  3
Dashed __ __ __ __ __ __ __ __ __ __ __ __ __ _
 72
65
 73
2
 40
19.0500000000000007
 49
12.6999999999999993
 49
-6.3499999999999996
  0
LTYPE
  2
DASHED2
 70
0
  3
Dashed (.5x) _ _ _ _ _ _ _ _ _ _ _ _ _ _ _ _ _
 72
65
 73
2
 40
9.5250000000000004
 49
6.3499999999999996
 49
-3.1749999999999998
  0
LTYPE
  2
DASHEDX2
 70
0
  3
Dashed (2x) ____  ____  ____  ____  ____  ___
 72
65
 73
2
 40
38.1000000000000014
 49
25.3999999999999986
 49
-12.6999999999999993
  0
LTYPE
  2
DASHDOT
 70
0
  3
Dash dot __ . __ . __ . __ . __ . __ . __ . __
 72
65
 73
4
 40
25.3999999999999986
 49
12.6999999999999993
 49
-6.3499999999999996
 49
0.0
 49
-6.3499999999999996
  0
LTYPE
  2
DASHDOT2
 70
0
  3
Dash dot (.5x) _._._._._._._._._._._._._._._.
 72
65
 73
4
 40
12.6999999999999993
 49
6.3499999999999996
 49
-3.1749999999999998
 49
0.0
 49
-3.1749999999999998
  0
LTYPE
  2
DASHDOTX2
 70
0
  3
Dash dot (2x) ____  .  ____  .  ____  .  ___
 72
65
 73
4
 40
50.7999999999999972
 49
25.3999999999999986
 49
-12.6999999999999993
 49
0.0
 49
-12.6999999999999993
  0
LTYPE
  2
DIVIDE
 70
0
  3
Divide ____ . . ____ . . ____ . . ____ . . ____
 72
65
 73
6
 40
31.75
 49
12.6999999999999993
 49
-6.3499999999999996
 49
0.0
 49
-6.3499999999999996
 49
0.0
 49
-6.3499999999999996
  0
LTYPE
  2
DIVIDE2
 70
0
  3
Divide (.5x) __..__..__..__..__..__..__..__.._
 72
65
 73
6
 40
15.875
 49
6.3499999999999996
 49
-3.1749999999999998
 49
0.0
 49
-3.1749999999999998
 49
0.0
 49
-3.1749999999999998
  0
LTYPE
  2
DIVIDEX2
 70
0
  3
Divide (2x) ________  .  .  ________  .  .  _
 72
65
 73
6
 40
63.5
 49
25.3999999999999986
 49
-12.6999999999999993
 49
0.0
 49
-12.6999999999999993
 49
0.0
 49
-12.6999999999999993
  0
LTYPE
  2
CENTER
 70
0
  3
Center ____ _ ____ _ ____ _ ____ _ ____ _ ____
 72
65
 73
4
 40
50.7999999999999972
 49
31.75
 49
-6.3499999999999996
 49
6.3499999999999996
 49
-6.3499999999999996
  0
LTYPE
  2
CENTER2
 70
0
  3
Center (.5x) ___ _ ___ _ ___ _ ___ _ ___ _ ___
 72
65
 73
4
 40
28.5749999999999993
 49
19.0500000000000007
 49
-3.1749999999999998
 49
3.1749999999999998
 49
-3.1749999999999998
  0
LTYPE
  2
CENTERX2
 70
0
  3
Center (2x) ________  __  ________  __  _____
 72
65
 73
4
 40
101.5999999999999943
 49
63.5
 49
-12.6999999999999993
 49
12.6999999999999993
 49
-12.6999999999999993
  0
LTYPE
  2
BORDER
 70
0
  3
Border __ __ . __ __ . __ __ . __ __ . __ __ .
 72
65
 73
6
 40
44.4500000000000028
 49
12.6999999999999993
 49
-6.3499999999999996
 49
12.6999999999999993
 49
-6.3499999999999996
 49
0.0
 49
-6.3499999999999996
  0
LTYPE
  2
BORDER2
 70
0
  3
Border (.5x) __.__.__.__.__.__.__.__.__.__.__.
 72
65
 73
6
 40
22.2250000000000014
 49
6.3499999999999996
 49
-3.1749999999999998
 49
6.3499999999999996
 49
-3.1749999999999998
 49
0.0
 49
-3.1749999999999998
  0
LTYPE
  2
BORDERX2
 70
0
  3
Border (2x) ____  ____  .  ____  ____  .  ___
 72
65
 73
6
 40
88.9000000000000057
 49
25.3999999999999986
 49
-12.6999999999999993
 49
25.3999999999999986
 49
-12.6999999999999993
 49
0.0
 49
-12.6999999999999993
  0
ENDTAB
  0
TABLE
  2
LAYER
 70
2
  0
LAYER
  2
0
 70
0
 62
7
  6
CONTINUOUS
  0
LAYER
  2
AUX
 70
0
 62
4
  6
CONTINUOUS
  0
ENDTAB
  0
TABLE
  2
STYLE
 70
1
  0
STYLE
  2
Standard
 70
0
 40
0.0
 41
0.75
 50
0.0
 71
0
 42
2.5
  3
txt
  4

  0
ENDTAB
  0
TABLE
  2
VIEW
 70
0
  0
ENDTAB
  0
TABLE
  2
UCS
 70
0
  0
ENDTAB
  0
TABLE
  2
APPID
 70
1
  0
APPID
  2
ACAD
 70
0
  0
ENDTAB
  0
TABLE
  2
DIMSTYLE
 70
1
  0
DIMSTYLE
  2
Standard
  3

  4

  5

  6

  7

 40
1.0
 41
25.0
 42
6.25
 43
3.75
 44
12.5
 45
0.0
 46
0.0
 47
0.0
 48
0.0
 70
0
 71
0
 72
0
 73
0
 74
0
 75
0
 76
0
 77
1
 78
8
140
25.0
141
2.5
142
0.0
143
0.03937007874016
144
1.0
145
0.0
146
1.0
147
6.25
170
0
171
3
172
1
173
0
174
0
175
0
176
0
177
0
178
0
  0
ENDTAB
  0
ENDSEC
  0
SECTION
  2
BLOCKS
  0
ENDSEC
  0
SECTION
  2
ENTITIES
  0
POLYLINE
  8
0
 66
1
 70
0
 10
0.0
 20
0.0
 30
0.0
  0
VERTEX
  8
0
 10
1159.9999936971278203
 20
-158.2419916371360671
 30
0.0
  0
VERTEX
  8
0
 10
1163.0000000328536771
 20
-158.2499999946790012
 30
0.0
  0
VERTEX
  8
0
 10
1163.0000000328536771
 20
-163.2499999946790865
 30
0.0
 42
0.9999999999999999
  0
VERTEX
  8
0
 10
1187.0000000328536771
 20
-163.2499999946791149
 30
0.0
  0
VERTEX
  8
0
 10
1187.0000000328536771
 20
-158.2499999946790581
 30
0.0
  0
VERTEX
  8
0
 10
1190.0000000328536771
 20
-158.2499999946791149
 30
0.0
  0
VERTEX
  8
0
 10
1190.2500000328536771
 20
157.7500000053209988
 30
0.0
  0
VERTEX
  8
0
 10
1194.5000000328536771
 20
157.7500000053211693
 30
0.0
  0
VERTEX
  8
0
 10
1194.5000000328536771
 20
-147.2499999946791434
 30
0.0
  0
VERTEX
  8
0
 10
1194.5000000328536771
 20
-158.2661817124556194
 30
0.0
  0
VERTEX
  8
0
 10
1194.5000000328536771
 20
-163.2499999946790581
 30
0.0
 42
-0.9999999999999999
  0
VERTEX
  8
0
 10
1155.5000000328536771
 20
-163.2499999946791149
 30
0.0
  0
VERTEX
  8
0
 10
1155.5000000328536771
 20
-158.2299791431037193
 30
0.0
  0
VERTEX
  8
0
 10
1155.5000000328536771
 20
-147.2499999946790012
 30
0.0
  0
VERTEX
  8
0
 10
1155.5000000328536771
 20
157.7500000053209988
 30
0.0
  0
VERTEX
  8
0
 10
1159.7500000328536771
 20
157.7500000053204303
 30
0.0
  0
VERTEX
  8
0
 10
1160.0000000328536771
 20
-158.2499999946790865
 30
0.0
  0
SEQEND
  0
POLYLINE
  8
0
 66
1
 70
0
 10
0.0
 20
0.0
 30
0.0
  0
VERTEX
  8
0
 10
1159.0000000328536771
 20
-163.2499999946790581
 30
0.0
  0
VERTEX
  8
0
 10
1159.0000000328536771
 20
148.2357194288895528
 30
0.0
  0
VERTEX
  8
0
 10
1155.6507576103931569
 20
153.622654796069412
 30
0.0
 42
-0.041645709474328
  0
VERTEX
  8
0
 10
1155.5750000802254362
 20
153.7706907093738096
 30
0.0
 42
-1.4918563427007479
  0
VERTEX
  8
0
 10
1194.4249999015080448
 20
153.7706906129330662
 30
0.0
 42
-0.0416456791428425
  0
VERTEX
  8
0
 10
1194.349242455314652
 20
153.6226547960702931
 30
0.0
  0
VERTEX
  8
0
 10
1191.0000000328536771
 20
148.2357194288896665
 30
0.0
  0
VERTEX
  8
0
 10
1191.0000000328536771
 20
-163.2499999946790581
 30
0.0
  0
VERTEX
  8
0
 10
1191.0000000328536771
 20
-163.2499999946790581
 30
0.0
 42
-0.9999999999999999
  0
VERTEX
  8
0
 10
1159.0000000328536771
 20
-163.2499999946791149
 30
0.0
  0
VERTEX
  8
0
 10
1159.0000000328536771
 20
-163.2499999946790581
 30
0.0
  0
SEQEND
  0
POLYLINE
  8
0
 66
1
 70
0
 10
0.0
 20
0.0
 30
0.0
  0
VERTEX
  8
0
 10
1159.0000000328536771
 20
-163.2499999946790581
 30
0.0
  0
VERTEX
  8
0
 10
1159.0000000328536771
 20
148.2357194288895528
 30
0.0
  0
VERTEX
  8
0
 10
1155.6507576103931569
 20
153.622654796069412
 30
0.0
 42
-0.041645709474328
  0
VERTEX
  8
0
 10
1155.5750000802254362
 20
153.7706907093738096
 30
0.0
 42
-1.4918563427007479
  0
VERTEX
  8
0
 10
1194.4249999015080448
 20
153.7706906129330662
 30
0.0
 42
-0.0416456791428425
  0
VERTEX
  8
0
 10
1194.349242455314652
 20
153.6226547960702931
 30
0.0
  0
VERTEX
  8
0
 10
1191.0000000328536771
 20
148.2357194288896665
 30
0.0
  0
VERTEX
  8
0
 10
1191.0000000328536771
 20
-163.2499999946790581
 30
0.0
  0
VERTEX
  8
0
 10
1191.0000000328536771
 20
-163.2499999946790581
 30
0.0
 42
-0.9999999999999999
  0
VERTEX
  8
0
 10
1159.0000000328536771
 20
-163.2499999946791149
 30
0.0
  0
VERTEX
  8
0
 10
1159.0000000328536771
 20
-163.2499999946790581
 30
0.0
  0
SEQEND
  0
POLYLINE
  8
0
 62
1
 66
1
 70
0
 10
0.0
 20
0.0
 30
0.0
  0
VERTEX
  8
0
 10
1159.9999936971278203
 20
-158.2419916371360671
 30
0.0
  0
VERTEX
  8
0
 10
1163.0000000328536771
 20
-158.2499999946790012
 30
0.0
  0
VERTEX
  8
0
 10
1163.0000000328536771
 20
-163.2499999946790865
 30
0.0
 42
0.9999999999999999
  0
VERTEX
  8
0
 10
1187.0000000328536771
 20
-163.2499999946791149
 30
0.0
  0
VERTEX
  8
0
 10
1187.0000000328536771
 20
-158.2499999946790581
 30
0.0
  0
VERTEX
  8
0
 10
1190.0000000328536771
 20
-158.2499999946791149
 30
0.0
  0
VERTEX
  8
0
 10
1190.2500000328536771
 20
157.7500000053209988
 30
0.0
  0
VERTEX
  8
0
 10
1194.5000000328536771
 20
157.7500000053211693
 30
0.0
  0
VERTEX
  8
0
 10
1194.5000000328536771
 20
-147.2499999946791434
 30
0.0
  0
VERTEX
  8
0
 10
1194.5000000328536771
 20
-158.2661817124556194
 30
0.0
  0
VERTEX
  8
0
 10
1194.5000000328536771
 20
-163.2499999946790581
 30
0.0
 42
-0.9999999999999999
  0
VERTEX
  8
0
 10
1155.5000000328536771
 20
-163.2499999946791149
 30
0.0
  0
VERTEX
  8
0
 10
1155.5000000328536771
 20
-158.2299791431037193
 30
0.0
  0
VERTEX
  8
0
 10
1155.5000000328536771
 20
-147.2499999946790012
 30
0.0
  0
VERTEX
  8
0
 10
1155.5000000328536771
 20
157.7500000053209988
 30
0.0
  0
VERTEX
  8
0
 10
1159.7500000328536771
 20
157.7500000053204303
 30
0.0
  0
VERTEX
  8
0
 10
1160.0000000328536771
 20
-158.2499999946790865
 30
0.0
  0
SEQEND
  0
POLYLINE
  8
0
 66
1
 70
0
 10
0.0
 20
0.0
 30
0.0
  0
VERTEX
  8
0
 10
1089.0000000328536771
 20
-163.2499999946790581
 30
0.0
  0
VERTEX
  8
0
 10
1089.0000000328536771
 20
148.2357194288895528
 30
0.0
  0
VERTEX
  8
0
 10
1085.6507576103931569
 20
153.6226547960694404
 30
0.0
 42
-0.041645709474328
  0
VERTEX
  8
0
 10
1085.5750000802254362
 20
153.7706907093738096
 30
0.0
 42
-1.4918563427007479
  0
VERTEX
  8
0
 10
1124.4249999015080448
 20
153.770690612933123
 30
0.0
 42
-0.0416456791428425
  0
VERTEX
  8
0
 10
1124.349242455314652
 20
153.6226547960703215
 30
0.0
  0
VERTEX
  8
0
 10
1121.0000000328539045
 20
148.235719428889638
 30
0.0
  0
VERTEX
  8
0
 10
1121.0000000328536771
 20
-163.2499999946790012
 30
0.0
  0
VERTEX
  8
0
 10
1121.0000000328536771
 20
-163.2499999946790012
 30
0.0
 42
-0.9999999999999999
  0
VERTEX
  8
0
 10
1089.0000000328536771
 20
-163.2499999946790581
 30
0.0
  0
VERTEX
  8
0
 10
1089.0000000328536771
 20
-163.2499999946790581
 30
0.0
  0
SEQEND
  0
POLYLINE
  8
0
 62
1
 66
1
 70
0
 10
0.0
 20
0.0
 30
0.0
  0
VERTEX
  8
0
 10
1089.9999936971278203
 20
-158.2419916371360671
 30
0.0
  0
VERTEX
  8
0
 10
1093.0000000328539045
 20
-158.2499999946789728
 30
0.0
  0
VERTEX
  8
0
 10
1093.0000000328536771
 20
-163.2499999946790012
 30
0.0
 42
0.9999999999999999
  0
VERTEX
  8
0
 10
1117.0000000328536771
 20
-163.2499999946790581
 30
0.0
  0
VERTEX
  8
0
 10
1117.0000000328539045
 20
-158.2499999946790012
 30
0.0
  0
VERTEX
  8
0
 10
1120.0000000328536771
 20
-158.2499999946790865
 30
0.0
  0
VERTEX
  8
0
 10
1120.2500000328536771
 20
157.7500000053209988
 30
0.0
  0
VERTEX
  8
0
 10
1124.5000000328536771
 20
157.7500000053211409
 30
0.0
  0
VERTEX
  8
0
 10
1124.5000000328536771
 20
-147.2499999946790012
 30
0.0
  0
VERTEX
  8
0
 10
1124.5000000328539045
 20
-158.2661817124555057
 30
0.0
  0
VERTEX
  8
0
 10
1124.5000000328539045
 20
-163.2499999946789728
 30
0.0
 42
-0.9999999999999999
  0
VERTEX
  8
0
 10
1085.5000000328536771
 20
-163.2499999946790581
 30
0.0
  0
VERTEX
  8
0
 10
1085.5000000328536771
 20
-158.2299791431036624
 30
0.0
  0
VERTEX
  8
0
 10
1085.5000000328536771
 20
-147.2499999946790297
 30
0.0
  0
VERTEX
  8
0
 10
1085.5000000328536771
 20
157.7500000053209988
 30
0.0
  0
VERTEX
  8
0
 10
1089.7500000328536771
 20
157.7500000053204303
 30
0.0
  0
VERTEX
  8
0
 10
1090.0000000328536771
 20
-158.2499999946790581
 30
0.0
  0
SEQEND
  0
POLYLINE
  8
0
 66
1
 70
0
 10
0.0
 20
0.0
 30
0.0
  0
VERTEX
  8
0
 10
1019.0000000328537908
 20
-163.2499999946790012
 30
0.0
  0
VERTEX
  8
0
 10
1019.0000000328537908
 20
148.2357194288895812
 30
0.0
  0
VERTEX
  8
0
 10
1015.6507576103931569
 20
153.622654796069412
 30
0.0
 42
-0.041645709474328
  0
VERTEX
  8
0
 10
1015.5750000802254362
 20
153.7706907093738096
 30
0.0
 42
-1.4918563427007479
  0
VERTEX
  8
0
 10
1054.4249999015080448
 20
153.7706906129330946
 30
0.0
 42
-0.0416456791428425
  0
VERTEX
  8
0
 10
1054.349242455314652
 20
153.6226547960703215
 30
0.0
  0
VERTEX
  8
0
 10
1051.0000000328536771
 20
148.235719428889638
 30
0.0
  0
VERTEX
  8
0
 10
1051.0000000328536771
 20
-163.2499999946790297
 30
0.0
  0
VERTEX
  8
0
 10
1051.0000000328536771
 20
-163.2499999946790297
 30
0.0
 42
-0.9999999999999999
  0
VERTEX
  8
0
 10
1019.0000000328539045
 20
-163.2499999946790012
 30
0.0
  0
VERTEX
  8
0
 10
1019.0000000328537908
 20
-163.2499999946790012
 30
0.0
  0
SEQEND
  0
POLYLINE
  8
0
 62
1
 66
1
 70
0
 10
0.0
 20
0.0
 30
0.0
  0
VERTEX
  8
0
 10
1019.9999936971278203
 20
-158.2419916371359818
 30
0.0
  0
VERTEX
  8
0
 10
1023.0000000328536771
 20
-158.2499999946790012
 30
0.0
  0
VERTEX
  8
0
 10
1023.0000000328537908
 20
-163.2499999946790012
 30
0.0
 42
0.9999999999999999
  0
VERTEX
  8
0
 10
1047.0000000328539045
 20
-163.2499999946790012
 30
0.0
  0
VERTEX
  8
0
 10
1047.0000000328536771
 20
-158.2499999946790297
 30
0.0
  0
VERTEX
  8
0
 10
1050.0000000328536771
 20
-158.2499999946790297
 30
0.0
  0
VERTEX
  8
0
 10
1050.2500000328536771
 20
157.7500000053209988
 30
0.0
  0
VERTEX
  8
0
 10
1054.5000000328536771
 20
157.7500000053211693
 30
0.0
  0
VERTEX
  8
0
 10
1054.5000000328539045
 20
-147.2499999946790012
 30
0.0
  0
VERTEX
  8
0
 10
1054.5000000328539045
 20
-158.2661817124554773
 30
0.0
  0
VERTEX
  8
0
 10
1054.5000000328539045
 20
-163.2499999946790012
 30
0.0
 42
-0.9999999999999999
  0
VERTEX
  8
0
 10
1015.5000000328539045
 20
-163.2499999946790012
 30
0.0
  0
VERTEX
  8
0
 10
1015.5000000328536771
 20
-158.229979143103634
 30
0.0
  0
VERTEX
  8
0
 10
1015.5000000328537908
 20
-147.2499999946790012
 30
0.0
  0
VERTEX
  8
0
 10
1015.5000000328537908
 20
157.7500000053209988
 30
0.0
  0
VERTEX
  8
0
 10
1019.7500000328537908
 20
157.7500000053204587
 30
0.0
  0
VERTEX
  8
0
 10
1020.0000000328537908
 20
-158.2499999946790012
 30
0.0
  0
SEQEND
  0
POLYLINE
  8
0
 66
1
 70
0
 10
0.0
 20
0.0
 30
0.0
  0
VERTEX
  8
0
 10
949.0000000328537908
 20
-163.2499999946790012
 30
0.0
  0
VERTEX
  8
0
 10
949.0000000328537908
 20
148.2357194288895528
 30
0.0
  0
VERTEX
  8
0
 10
945.6507576103931569
 20
153.622654796069412
 30
0.0
 42
-0.041645709474328
  0
VERTEX
  8
0
 10
945.5750000802254362
 20
153.7706907093738096
 30
0.0
 42
-1.4918563427007479
  0
VERTEX
  8
0
 10
984.4249999015080448
 20
153.7706906129330946
 30
0.0
 42
-0.0416456791428425
  0
VERTEX
  8
0
 10
984.3492424553144247
 20
153.6226547960703215
 30
0.0
  0
VERTEX
  8
0
 10
981.0000000328537908
 20
148.235719428889638
 30
0.0
  0
VERTEX
  8
0
 10
981.0000000328537908
 20
-163.2499999946790012
 30
0.0
  0
VERTEX
  8
0
 10
981.0000000328537908
 20
-163.2499999946790012
 30
0.0
 42
-0.9999999999999999
  0
VERTEX
  8
0
 10
949.0000000328536771
 20
-163.2499999946790012
 30
0.0
  0
VERTEX
  8
0
 10
949.0000000328537908
 20
-163.2499999946790012
 30
0.0
  0
SEQEND
  0
POLYLINE
  8
0
 62
1
 66
1
 70
0
 10
0.0
 20
0.0
 30
0.0
  0
VERTEX
  8
0
 10
949.9999936971278203
 20
-158.2419916371359534
 30
0.0
  0
VERTEX
  8
0
 10
953.0000000328537908
 20
-158.2499999946790012
 30
0.0
  0
VERTEX
  8
0
 10
953.0000000328536771
 20
-163.2499999946789728
 30
0.0
 42
0.9999999999999999
  0
VERTEX
  8
0
 10
977.0000000328536771
 20
-163.2499999946790012
 30
0.0
  0
VERTEX
  8
0
 10
977.0000000328537908
 20
-158.2499999946790012
 30
0.0
  0
VERTEX
  8
0
 10
980.0000000328537908
 20
-158.2499999946790012
 30
0.0
  0
VERTEX
  8
0
 10
980.2500000328537908
 20
157.7500000053209703
 30
0.0
  0
VERTEX
  8
0
 10
984.5000000328537908
 20
157.7500000053211693
 30
0.0
  0
VERTEX
  8
0
 10
984.5000000328536771
 20
-147.2499999946790012
 30
0.0
  0
VERTEX
  8
0
 10
984.5000000328537908
 20
-158.2661817124554773
 30
0.0
  0
VERTEX
  8
0
 10
984.5000000328537908
 20
-163.2499999946790012
 30
0.0
 42
-0.9999999999999999
  0
VERTEX
  8
0
 10
945.5000000328536771
 20
-163.2499999946790012
 30
0.0
  0
VERTEX
  8
0
 10
945.5000000328537908
 20
-158.2299791431036056
 30
0.0
  0
VERTEX
  8
0
 10
945.5000000328536771
 20
-147.2499999946789728
 30
0.0
  0
VERTEX
  8
0
 10
945.5000000328537908
 20
157.7500000053209988
 30
0.0
  0
VERTEX
  8
0
 10
949.7500000328537908
 20
157.7500000053204303
 30
0.0
  0
VERTEX
  8
0
 10
950.0000000328537908
 20
-158.2499999946789728
 30
0.0
  0
SEQEND
  0
POLYLINE
  8
0
 66
1
 70
0
 10
0.0
 20
0.0
 30
0.0
  0
VERTEX
  8
0
 10
879.0000000328537908
 20
-163.2499999946790581
 30
0.0
  0
VERTEX
  8
0
 10
879.0000000328537908
 20
148.2357194288895812
 30
0.0
  0
VERTEX
  8
0
 10
875.6507576103930433
 20
153.622654796069412
 30
0.0
 42
-0.041645709474328
  0
VERTEX
  8
0
 10
875.5750000802254362
 20
153.7706907093738096
 30
0.0
 42
-1.4918563427007479
  0
VERTEX
  8
0
 10
914.4249999015080448
 20
153.7706906129330662
 30
0.0
 42
-0.0416456791428425
  0
VERTEX
  8
0
 10
914.3492424553144247
 20
153.6226547960702931
 30
0.0
  0
VERTEX
  8
0
 10
911.0000000328537908
 20
148.2357194288896096
 30
0.0
  0
VERTEX
  8
0
 10
911.0000000328536771
 20
-163.2499999946789728
 30
0.0
  0
VERTEX
  8
0
 10
911.0000000328536771
 20
-163.2499999946789728
 30
0.0
 42
-0.9999999999999999
  0
VERTEX
  8
0
 10
879.0000000328539045
 20
-163.2499999946790581
 30
0.0
  0
VERTEX
  8
0
 10
879.0000000328537908
 20
-163.2499999946790581
 30
0.0
  0
SEQEND
  0
POLYLINE
  8
0
 62
1
 66
1
 70
0
 10
0.0
 20
0.0
 30
0.0
  0
VERTEX
  8
0
 10
879.9999936971278203
 20
-158.2419916371358681
 30
0.0
  0
VERTEX
  8
0
 10
883.0000000328537908
 20
-158.2499999946790012
 30
0.0
  0
VERTEX
  8
0
 10
883.0000000328536771
 20
-163.2499999946789728
 30
0.0
 42
0.9999999999999999
  0
VERTEX
  8
0
 10
907.0000000328539045
 20
-163.2499999946790581
 30
0.0
  0
VERTEX
  8
0
 10
907.0000000328537908
 20
-158.2499999946790012
 30
0.0
  0
VERTEX
  8
0
 10
910.0000000328537908
 20
-158.2499999946790297
 30
0.0
  0
VERTEX
  8
0
 10
910.2500000328537908
 20
157.7500000053209988
 30
0.0
  0
VERTEX
  8
0
 10
914.5000000328537908
 20
157.7500000053211409
 30
0.0
  0
VERTEX
  8
0
 10
914.5000000328537908
 20
-147.2499999946790012
 30
0.0
  0
VERTEX
  8
0
 10
914.5000000328536771
 20
-158.2661817124554489
 30
0.0
  0
VERTEX
  8
0
 10
914.5000000328537908
 20
-163.2499999946790012
 30
0.0
 42
-0.9999999999999999
  0
VERTEX
  8
0
 10
875.5000000328539045
 20
-163.2499999946790581
 30
0.0
  0
VERTEX
  8
0
 10
875.5000000328537908
 20
-158.229979143103634
 30
0.0
  0
VERTEX
  8
0
 10
875.5000000328536771
 20
-147.249999994678916
 30
0.0
  0
VERTEX
  8
0
 10
875.5000000328537908
 20
157.7500000053209703
 30
0.0
  0
VERTEX
  8
0
 10
879.7500000328537908
 20
157.7500000053204303
 30
0.0
  0
VERTEX
  8
0
 10
880.0000000328536771
 20
-158.2499999946789728
 30
0.0
  0
SEQEND
  0
POLYLINE
  8
0
 66
1
 70
0
 10
0.0
 20
0.0
 30
0.0
  0
VERTEX
  8
0
 10
809.0000000328537908
 20
-163.2499999946789728
 30
0.0
  0
VERTEX
  8
0
 10
809.0000000328537908
 20
148.235719428889638
 30
0.0
  0
VERTEX
  8
0
 10
805.6507576103930433
 20
153.6226547960693267
 30
0.0
 42
-0.041645709474328
  0
VERTEX
  8
0
 10
805.5750000802254362
 20
153.7706907093737527
 30
0.0
 42
-1.4918563427007479
  0
VERTEX
  8
0
 10
844.4249999015080448
 20
153.7706906129330946
 30
0.0
 42
-0.0416456791428425
  0
VERTEX
  8
0
 10
844.3492424553145383
 20
153.6226547960703499
 30
0.0
  0
VERTEX
  8
0
 10
841.0000000328537908
 20
148.2357194288896949
 30
0.0
  0
VERTEX
  8
0
 10
841.0000000328536771
 20
-163.2499999946789444
 30
0.0
  0
VERTEX
  8
0
 10
841.0000000328536771
 20
-163.2499999946789444
 30
0.0
 42
-0.9999999999999999
  0
VERTEX
  8
0
 10
809.0000000328537908
 20
-163.2499999946789728
 30
0.0
  0
VERTEX
  8
0
 10
809.0000000328537908
 20
-163.2499999946789728
 30
0.0
  0
SEQEND
  0
POLYLINE
  8
0
 62
1
 66
1
 70
0
 10
0.0
 20
0.0
 30
0.0
  0
VERTEX
  8
0
 10
809.9999936971278203
 20
-158.241991637135925
 30
0.0
  0
VERTEX
  8
0
 10
813.0000000328536771
 20
-158.249999994678916
 30
0.0
  0
VERTEX
  8
0
 10
813.0000000328536771
 20
-163.2499999946789444
 30
0.0
 42
0.9999999999999999
  0
VERTEX
  8
0
 10
837.0000000328537908
 20
-163.2499999946789728
 30
0.0
  0
VERTEX
  8
0
 10
837.0000000328537908
 20
-158.2499999946789728
 30
0.0
  0
VERTEX
  8
0
 10
840.0000000328536771
 20
-158.2499999946789728
 30
0.0
  0
VERTEX
  8
0
 10
840.2500000328537908
 20
157.7500000053210272
 30
0.0
  0
VERTEX
  8
0
 10
844.5000000328537908
 20
157.7500000053211693
 30
0.0
  0
VERTEX
  8
0
 10
844.5000000328537908
 20
-147.2499999946789728
 30
0.0
  0
VERTEX
  8
0
 10
844.5000000328536771
 20
-158.2661817124554489
 30
0.0
  0
VERTEX
  8
0
 10
844.5000000328537908
 20
-163.2499999946789728
 30
0.0
 42
-0.9999999999999999
  0
VERTEX
  8
0
 10
805.5000000328537908
 20
-163.2499999946789728
 30
0.0
  0
VERTEX
  8
0
 10
805.5000000328536771
 20
-158.2299791431035203
 30
0.0
  0
VERTEX
  8
0
 10
805.5000000328537908
 20
-147.2499999946789728
 30
0.0
  0
VERTEX
  8
0
 10
805.5000000328537908
 20
157.7500000053210272
 30
0.0
  0
VERTEX
  8
0
 10
809.7500000328537908
 20
157.7500000053204872
 30
0.0
  0
VERTEX
  8
0
 10
810.0000000328537908
 20
-158.2499999946790012
 30
0.0
  0
SEQEND
  0
POLYLINE
  8
0
 66
1
 70
0
 10
0.0
 20
0.0
 30
0.0
  0
VERTEX
  8
0
 10
1250.0
 20
210.0
 30
0.0
  0
VERTEX
  8
0
 10
750.0
 20
210.0
 30
0.0
  0
VERTEX
  8
0
 10
750.0
 20
-210.0
 30
0.0
  0
VERTEX
  8
0
 10
1250.0
 20
-210.0
 30
0.0
  0
VERTEX
  8
0
 10
1250.0
 20
210.0
 30
0.0
  0
SEQEND
  0
ENDSEC
  0
EOF
