999
dxflib 2.2.0.0
  0
SECTION
  2
HEADER
  9
$ACADVER
  1
AC1015
  9
$HANDSEED
  5
FFFF
  9
$DIMASZ
 40
2.5
  9
$PLIMMIN
 10
0.0
 20
0.0
  9
$DIMEXE
 40
1.25
  9
$DIMGAP
 40
0.625
  9
$PLIMMAX
 10
210.0
 20
297.0
  9
$INSUNITS
 70
4
  9
$DIMSTYLE
  2
Standard
  9
$CLAYER
  8
aux
  9
$DIMEXO
 40
0.625
  9
$DIMTXT
 40
2.5
  9
$CLAYER
  8
0
  0
ENDSEC
  0
SECTION
  2
TABLES
  0
TABLE
  2
VPORT
  5
8
100
AcDbSymbolTable
 70
1
  0
VPORT
  5
30
100
AcDbSymbolTableRecord
100
AcDbViewportTableRecord
  2
*Active
 70
0
 10
0.0
 20
0.0
 11
1.0
 21
1.0
 12
286.3055555555554861
 22
148.5
 13
0.0
 23
0.0
 14
10.0
 24
10.0
 15
10.0
 25
10.0
 16
0.0
 26
0.0
 36
1.0
 17
0.0
 27
0.0
 37
0.0
 40
297.0
 41
1.92798353909465
 42
50.0
 43
0.0
 44
0.0
 50
0.0
 51
0.0
 71
0
 72
100
 73
1
 74
3
 75
1
 76
1
 77
0
 78
0
281
0
 65
1
110
0.0
120
0.0
130
0.0
111
1.0
121
0.0
131
0.0
112
0.0
122
1.0
132
0.0
 79
0
146
0.0
  0
ENDTAB
  0
TABLE
  2
LTYPE
  5
5
100
AcDbSymbolTable
 70
21
  0
LTYPE
  5
14
100
AcDbSymbolTableRecord
100
AcDbLinetypeTableRecord
  2
ByBlock
 70
0
  3

 72
65
 73
0
 40
0.0
  0
LTYPE
  5
15
100
AcDbSymbolTableRecord
100
AcDbLinetypeTableRecord
  2
ByLayer
 70
0
  3

 72
65
 73
0
 40
0.0
  0
LTYPE
  5
16
100
AcDbSymbolTableRecord
100
AcDbLinetypeTableRecord
  2
CONTINUOUS
 70
0
  3
Solid line
 72
65
 73
0
 40
0.0
  0
LTYPE
  5
31
100
AcDbSymbolTableRecord
100
AcDbLinetypeTableRecord
  2
DOT
 70
0
  3
Dot . . . . . . . . . . . . . . . . . . . . . .
 72
65
 73
2
 40
6.3499999999999996
 49
0.0
 74
0
 49
-6.3499999999999996
 74
0
  0
LTYPE
  5
32
100
AcDbSymbolTableRecord
100
AcDbLinetypeTableRecord
  2
DOT2
 70
0
  3
Dot (.5x) .....................................
 72
65
 73
2
 40
3.1749999999999998
 49
0.0
 74
0
 49
-3.1749999999999998
 74
0
  0
LTYPE
  5
33
100
AcDbSymbolTableRecord
100
AcDbLinetypeTableRecord
  2
DOTX2
 70
0
  3
Dot (2x) .  .  .  .  .  .  .  .  .  .  .  .  .
 72
65
 73
2
 40
12.6999999999999993
 49
0.0
 74
0
 49
-12.6999999999999993
 74
0
  0
LTYPE
  5
34
100
AcDbSymbolTableRecord
100
AcDbLinetypeTableRecord
  2
DASHED
 70
0
  3
Dashed __ __ __ __ __ __ __ __ __ __ __ __ __ _
 72
65
 73
2
 40
19.0500000000000007
 49
12.6999999999999993
 74
0
 49
-6.3499999999999996
 74
0
  0
LTYPE
  5
35
100
AcDbSymbolTableRecord
100
AcDbLinetypeTableRecord
  2
DASHED2
 70
0
  3
Dashed (.5x) _ _ _ _ _ _ _ _ _ _ _ _ _ _ _ _ _
 72
65
 73
2
 40
9.5250000000000004
 49
6.3499999999999996
 74
0
 49
-3.1749999999999998
 74
0
  0
LTYPE
  5
36
100
AcDbSymbolTableRecord
100
AcDbLinetypeTableRecord
  2
DASHEDX2
 70
0
  3
Dashed (2x) ____  ____  ____  ____  ____  ___
 72
65
 73
2
 40
38.1000000000000014
 49
25.3999999999999986
 74
0
 49
-12.6999999999999993
 74
0
  0
LTYPE
  5
37
100
AcDbSymbolTableRecord
100
AcDbLinetypeTableRecord
  2
DASHDOT
 70
0
  3
Dash dot __ . __ . __ . __ . __ . __ . __ . __
 72
65
 73
4
 40
25.3999999999999986
 49
12.6999999999999993
 74
0
 49
-6.3499999999999996
 74
0
 49
0.0
 74
0
 49
-6.3499999999999996
 74
0
  0
LTYPE
  5
38
100
AcDbSymbolTableRecord
100
AcDbLinetypeTableRecord
  2
DASHDOT2
 70
0
  3
Dash dot (.5x) _._._._._._._._._._._._._._._.
 72
65
 73
4
 40
12.6999999999999993
 49
6.3499999999999996
 74
0
 49
-3.1749999999999998
 74
0
 49
0.0
 74
0
 49
-3.1749999999999998
 74
0
  0
LTYPE
  5
39
100
AcDbSymbolTableRecord
100
AcDbLinetypeTableRecord
  2
DASHDOTX2
 70
0
  3
Dash dot (2x) ____  .  ____  .  ____  .  ___
 72
65
 73
4
 40
50.7999999999999972
 49
25.3999999999999986
 74
0
 49
-12.6999999999999993
 74
0
 49
0.0
 74
0
 49
-12.6999999999999993
 74
0
  0
LTYPE
  5
3A
100
AcDbSymbolTableRecord
100
AcDbLinetypeTableRecord
  2
DIVIDE
 70
0
  3
Divide ____ . . ____ . . ____ . . ____ . . ____
 72
65
 73
6
 40
31.75
 49
12.6999999999999993
 74
0
 49
-6.3499999999999996
 74
0
 49
0.0
 74
0
 49
-6.3499999999999996
 74
0
 49
0.0
 74
0
 49
-6.3499999999999996
 74
0
  0
LTYPE
  5
3B
100
AcDbSymbolTableRecord
100
AcDbLinetypeTableRecord
  2
DIVIDE2
 70
0
  3
Divide (.5x) __..__..__..__..__..__..__..__.._
 72
65
 73
6
 40
15.875
 49
6.3499999999999996
 74
0
 49
-3.1749999999999998
 74
0
 49
0.0
 74
0
 49
-3.1749999999999998
 74
0
 49
0.0
 74
0
 49
-3.1749999999999998
 74
0
  0
LTYPE
  5
3C
100
AcDbSymbolTableRecord
100
AcDbLinetypeTableRecord
  2
DIVIDEX2
 70
0
  3
Divide (2x) ________  .  .  ________  .  .  _
 72
65
 73
6
 40
63.5
 49
25.3999999999999986
 74
0
 49
-12.6999999999999993
 74
0
 49
0.0
 74
0
 49
-12.6999999999999993
 74
0
 49
0.0
 74
0
 49
-12.6999999999999993
 74
0
  0
LTYPE
  5
3D
100
AcDbSymbolTableRecord
100
AcDbLinetypeTableRecord
  2
CENTER
 70
0
  3
Center ____ _ ____ _ ____ _ ____ _ ____ _ ____
 72
65
 73
4
 40
50.7999999999999972
 49
31.75
 74
0
 49
-6.3499999999999996
 74
0
 49
6.3499999999999996
 74
0
 49
-6.3499999999999996
 74
0
  0
LTYPE
  5
3E
100
AcDbSymbolTableRecord
100
AcDbLinetypeTableRecord
  2
CENTER2
 70
0
  3
Center (.5x) ___ _ ___ _ ___ _ ___ _ ___ _ ___
 72
65
 73
4
 40
28.5749999999999993
 49
19.0500000000000007
 74
0
 49
-3.1749999999999998
 74
0
 49
3.1749999999999998
 74
0
 49
-3.1749999999999998
 74
0
  0
LTYPE
  5
3F
100
AcDbSymbolTableRecord
100
AcDbLinetypeTableRecord
  2
CENTERX2
 70
0
  3
Center (2x) ________  __  ________  __  _____
 72
65
 73
4
 40
101.5999999999999943
 49
63.5
 74
0
 49
-12.6999999999999993
 74
0
 49
12.6999999999999993
 74
0
 49
-12.6999999999999993
 74
0
  0
LTYPE
  5
40
100
AcDbSymbolTableRecord
100
AcDbLinetypeTableRecord
  2
BORDER
 70
0
  3
Border __ __ . __ __ . __ __ . __ __ . __ __ .
 72
65
 73
6
 40
44.4500000000000028
 49
12.6999999999999993
 74
0
 49
-6.3499999999999996
 74
0
 49
12.6999999999999993
 74
0
 49
-6.3499999999999996
 74
0
 49
0.0
 74
0
 49
-6.3499999999999996
 74
0
  0
LTYPE
  5
41
100
AcDbSymbolTableRecord
100
AcDbLinetypeTableRecord
  2
BORDER2
 70
0
  3
Border (.5x) __.__.__.__.__.__.__.__.__.__.__.
 72
65
 73
6
 40
22.2250000000000014
 49
6.3499999999999996
 74
0
 49
-3.1749999999999998
 74
0
 49
6.3499999999999996
 74
0
 49
-3.1749999999999998
 74
0
 49
0.0
 74
0
 49
-3.1749999999999998
 74
0
  0
LTYPE
  5
42
100
AcDbSymbolTableRecord
100
AcDbLinetypeTableRecord
  2
BORDERX2
 70
0
  3
Border (2x) ____  ____  .  ____  ____  .  ___
 72
65
 73
6
 40
88.9000000000000057
 49
25.3999999999999986
 74
0
 49
-12.6999999999999993
 74
0
 49
25.3999999999999986
 74
0
 49
-12.6999999999999993
 74
0
 49
0.0
 74
0
 49
-12.6999999999999993
 74
0
  0
ENDTAB
  0
TABLE
  2
LAYER
  5
2
100
AcDbSymbolTable
 70
2
  0
LAYER
  5
10
100
AcDbSymbolTableRecord
100
AcDbLayerTableRecord
  2
0
 70
0
 62
7
420
16777215
  6
CONTINUOUS
390
F
  0
LAYER
  5
43
100
AcDbSymbolTableRecord
100
AcDbLayerTableRecord
  2
aux
 70
1
 62
-4
420
65535
  6
CONTINUOUS
370
0
390
F
  0
ENDTAB
  0
TABLE
  2
STYLE
  5
3
100
AcDbSymbolTable
 70
1
  0
STYLE
  5
11
100
AcDbSymbolTableRecord
100
AcDbTextStyleTableRecord
  2
Standard
 70
0
 40
0.0
 41
0.75
 50
0.0
 71
0
 42
2.5
  3
txt
  4

  0
ENDTAB
  0
TABLE
  2
VIEW
  5
6
100
AcDbSymbolTable
 70
0
  0
ENDTAB
  0
TABLE
  2
UCS
  5
7
100
AcDbSymbolTable
 70
0
  0
ENDTAB
  0
TABLE
  2
APPID
  5
9
100
AcDbSymbolTable
 70
1
  0
APPID
  5
12
100
AcDbSymbolTableRecord
100
AcDbRegAppTableRecord
  2
ACAD
 70
0
  0
ENDTAB
  0
TABLE
  2
DIMSTYLE
  5
A
100
AcDbSymbolTable
 70
1
100
AcDbDimStyleTable
 71
0
  0
DIMSTYLE
105
27
100
AcDbSymbolTableRecord
100
AcDbDimStyleTableRecord
  2
Standard
 41
2.5
 42
0.625
 43
3.75
 44
1.25
 70
0
 73
0
 74
0
 77
1
 78
8
140
2.5
141
2.5
143
0.03937007874016
147
0.625
171
3
172
1
271
2
272
2
274
3
278
44
283
0
284
8
340
11
  0
ENDTAB
  0
TABLE
  2
BLOCK_RECORD
  5
1
100
AcDbSymbolTable
 70
1
  0
BLOCK_RECORD
  5
1F
100
AcDbSymbolTableRecord
100
AcDbBlockTableRecord
  2
*Model_Space
340
22
  0
BLOCK_RECORD
  5
1B
100
AcDbSymbolTableRecord
100
AcDbBlockTableRecord
  2
*Paper_Space
340
1E
  0
BLOCK_RECORD
  5
23
100
AcDbSymbolTableRecord
100
AcDbBlockTableRecord
  2
*Paper_Space0
340
26
  0
ENDTAB
  0
ENDSEC
  0
SECTION
  2
BLOCKS
  0
BLOCK
  5
20
100
AcDbEntity
  8
0
100
AcDbBlockBegin
  2
*Model_Space
 70
0
 10
0.0
 20
0.0
 30
0.0
  3
*Model_Space
  1

  0
ENDBLK
  5
21
100
AcDbEntity
  8
0
100
AcDbBlockEnd
  0
BLOCK
  5
1C
100
AcDbEntity
 67
1
  8
0
100
AcDbBlockBegin
  2
*Paper_Space
 70
0
 10
0.0
 20
0.0
 30
0.0
  3
*Paper_Space
  1

  0
ENDBLK
  5
1D
100
AcDbEntity
 67
1
  8
0
100
AcDbBlockEnd
  0
BLOCK
  5
24
100
AcDbEntity
  8
0
100
AcDbBlockBegin
  2
*Paper_Space0
 70
0
 10
0.0
 20
0.0
 30
0.0
  3
*Paper_Space0
  1

  0
ENDBLK
  5
25
100
AcDbEntity
  8
0
100
AcDbBlockEnd
  0
ENDSEC
  0
SECTION
  2
ENTITIES
  0
LWPOLYLINE
  5
44
  8
0
 62
256
370
-1
  6
ByLayer
100
AcDbEntity
100
AcDbPolyline
 90
5
 70
0
 10
0.0
 20
300.0
 10
1000.0
 20
300.0
 10
1000.0
 20
0.0
 10
0.0
 20
0.0
 10
0.0
 20
300.0
  0
LINE
  5
45
100
AcDbEntity
100
AcDbLine
  8
aux
 62
256
370
-1
  6
ByLayer
 10
950.0
 20
300.0
 30
0.0
 11
950.0
 21
0.0000000000000184
 31
0.0
  0
LINE
  5
46
100
AcDbEntity
100
AcDbLine
  8
aux
 62
256
370
-1
  6
ByLayer
 10
900.0
 20
300.0
 30
0.0
 11
900.0
 21
0.0000000000000367
 31
0.0
  0
LINE
  5
47
100
AcDbEntity
100
AcDbLine
  8
aux
 62
256
370
-1
  6
ByLayer
 10
100.0
 20
-0.0000000000000122
 30
0.0
 11
100.0
 21
300.0
 31
0.0
  0
LINE
  5
48
100
AcDbEntity
100
AcDbLine
  8
aux
 62
256
370
-1
  6
ByLayer
 10
150.0
 20
-0.0000000000000245
 30
0.0
 11
150.0
 21
300.0
 31
0.0
  0
LINE
  5
49
100
AcDbEntity
100
AcDbLine
  8
aux
 62
256
370
-1
  6
ByLayer
 10
50.0
 20
-0.0000000000000061
 30
0.0
 11
50.0
 21
300.0
 31
0.0
  0
LINE
  5
4A
100
AcDbEntity
100
AcDbLine
  8
aux
 62
256
370
-1
  6
ByLayer
 10
850.0
 20
300.0
 30
0.0
 11
850.0
 21
0.0000000000000551
 31
0.0
  0
CIRCLE
  5
4B
100
AcDbEntity
100
AcDbCircle
  8
0
 62
256
370
-1
  6
ByLayer
 10
649.5
 20
130.0
 30
0.0
 40
15.0
  0
CIRCLE
  5
4C
100
AcDbEntity
100
AcDbCircle
  8
0
 62
256
370
-1
  6
ByLayer
 10
617.0
 20
167.5000000000000853
 30
0.0
 40
4.0
  0
CIRCLE
  5
4D
100
AcDbEntity
100
AcDbCircle
  8
0
 62
256
370
-1
  6
ByLayer
 10
682.0
 20
167.5
 30
0.0
 40
4.0
  0
CIRCLE
  5
4E
100
AcDbEntity
100
AcDbCircle
  8
0
 62
256
370
-1
  6
ByLayer
 10
682.0
 20
92.5000000000000142
 30
0.0
 40
4.0
  0
CIRCLE
  5
4F
100
AcDbEntity
100
AcDbCircle
  8
0
 62
256
370
-1
  6
ByLayer
 10
617.0
 20
92.5000000000000142
 30
0.0
 40
4.0
  0
LINE
  5
50
100
AcDbEntity
100
AcDbLine
  8
aux
 62
256
370
-1
  6
ByLayer
 10
619.5
 20
130.0
 30
0.0
 11
679.5
 21
130.0
 31
0.0
  0
LINE
  5
51
100
AcDbEntity
100
AcDbLine
  8
aux
 62
256
370
-1
  6
ByLayer
 10
649.5
 20
160.0
 30
0.0
 11
649.5
 21
100.0
 31
0.0
  0
LINE
  5
52
100
AcDbEntity
100
AcDbLine
  8
aux
 62
256
370
-1
  6
ByLayer
 10
617.0
 20
167.5000000000000853
 30
0.0
 11
682.0
 21
167.5
 31
0.0
  0
LINE
  5
53
100
AcDbEntity
100
AcDbLine
  8
aux
 62
256
370
-1
  6
ByLayer
 10
617.0
 20
92.5000000000000142
 30
0.0
 11
682.0
 21
92.5000000000000142
 31
0.0
  0
CIRCLE
  5
54
100
AcDbEntity
100
AcDbCircle
  8
0
 62
256
370
-1
  6
ByLayer
 10
849.5
 20
165.5000000000002274
 30
0.0
 40
14.5
  0
CIRCLE
  5
55
100
AcDbEntity
100
AcDbCircle
  8
0
 62
256
370
-1
  6
ByLayer
 10
849.5
 20
237.5000000000006253
 30
0.0
 40
14.5
  0
CIRCLE
  5
56
100
AcDbEntity
100
AcDbCircle
  8
0
 62
256
370
-1
  6
ByLayer
 10
885.5
 20
238.0000000000004263
 30
0.0
 40
14.5
  0
CIRCLE
  5
57
100
AcDbEntity
100
AcDbCircle
  8
0
 62
256
370
-1
  6
ByLayer
 10
849.5
 20
129.5000000000002274
 30
0.0
 40
14.5
  0
CIRCLE
  5
58
100
AcDbEntity
100
AcDbCircle
  8
0
 62
256
370
-1
  6
ByLayer
 10
885.5
 20
161.0
 30
0.0
 40
14.5
  0
CIRCLE
  5
59
100
AcDbEntity
100
AcDbCircle
  8
0
 62
256
370
-1
  6
ByLayer
 10
885.5
 20
125.0
 30
0.0
 40
14.5
  0
LINE
  5
5A
100
AcDbEntity
100
AcDbLine
  8
aux
 62
256
370
-1
  6
ByLayer
 10
849.5
 20
263.5000000000004547
 30
0.0
 11
849.5
 21
93.5000000000004263
 31
0.0
  0
LINE
  5
5B
100
AcDbEntity
100
AcDbLine
  8
aux
 62
256
370
-1
  6
ByLayer
 10
885.5
 20
263.5000000000004547
 30
0.0
 11
885.5
 21
93.5000000000004263
 31
0.0
  0
LINE
  5
5C
100
AcDbEntity
100
AcDbLine
  8
aux
 62
256
370
-1
  6
ByLayer
 10
813.5
 20
93.5000000000004263
 30
0.0
 11
813.5
 21
263.5000000000004547
 31
0.0
  0
LINE
  5
5D
100
AcDbEntity
100
AcDbLine
  8
aux
 62
256
370
-1
  6
ByLayer
 10
789.5
 20
161.0
 30
0.0
 11
885.5
 21
161.0
 31
0.0
  0
LINE
  5
5E
100
AcDbEntity
100
AcDbLine
  8
aux
 62
256
370
-1
  6
ByLayer
 10
909.5
 20
161.0
 30
0.0
 11
789.5
 21
161.0
 31
0.0
  0
LINE
  5
5F
100
AcDbEntity
100
AcDbLine
  8
aux
 62
256
370
-1
  6
ByLayer
 10
909.5
 20
125.0
 30
0.0
 11
789.5
 21
125.0
 31
0.0
  0
CIRCLE
  5
60
100
AcDbEntity
100
AcDbCircle
  8
0
 62
256
370
-1
  6
ByLayer
 10
813.5
 20
161.0
 30
0.0
 40
14.5
  0
CIRCLE
  5
61
100
AcDbEntity
100
AcDbCircle
  8
0
 62
256
370
-1
  6
ByLayer
 10
813.5
 20
125.0
 30
0.0
 40
14.5
  0
LINE
  5
62
100
AcDbEntity
100
AcDbLine
  8
aux
 62
256
370
-1
  6
ByLayer
 10
909.5
 20
166.0
 30
0.0
 11
789.5
 21
166.0
 31
0.0
  0
LINE
  5
63
100
AcDbEntity
100
AcDbLine
  8
aux
 62
256
370
-1
  6
ByLayer
 10
909.5
 20
130.0
 30
0.0
 11
789.5
 21
130.0
 31
0.0
  0
LINE
  5
64
100
AcDbEntity
100
AcDbLine
  8
aux
 62
256
370
-1
  6
ByLayer
 10
909.5
 20
143.0
 30
0.0
 11
789.5
 21
143.0
 31
0.0
  0
CIRCLE
  5
65
100
AcDbEntity
100
AcDbCircle
  8
0
 62
256
370
-1
  6
ByLayer
 10
136.5
 20
130.0
 30
0.0
 40
15.0
  0
CIRCLE
  5
66
100
AcDbEntity
100
AcDbCircle
  8
0
 62
256
370
-1
  6
ByLayer
 10
104.0
 20
167.5000000000000853
 30
0.0
 40
4.0
  0
CIRCLE
  5
67
100
AcDbEntity
100
AcDbCircle
  8
0
 62
256
370
-1
  6
ByLayer
 10
169.0
 20
167.5
 30
0.0
 40
4.0
  0
CIRCLE
  5
68
100
AcDbEntity
100
AcDbCircle
  8
0
 62
256
370
-1
  6
ByLayer
 10
169.0
 20
92.5000000000000142
 30
0.0
 40
4.0
  0
CIRCLE
  5
69
100
AcDbEntity
100
AcDbCircle
  8
0
 62
256
370
-1
  6
ByLayer
 10
104.0
 20
92.5000000000000142
 30
0.0
 40
4.0
  0
LINE
  5
6A
100
AcDbEntity
100
AcDbLine
  8
aux
 62
256
370
-1
  6
ByLayer
 10
106.5
 20
130.0
 30
0.0
 11
166.5
 21
130.0
 31
0.0
  0
LINE
  5
6B
100
AcDbEntity
100
AcDbLine
  8
aux
 62
256
370
-1
  6
ByLayer
 10
136.5
 20
160.0
 30
0.0
 11
136.5
 21
100.0
 31
0.0
  0
LINE
  5
6C
100
AcDbEntity
100
AcDbLine
  8
aux
 62
256
370
-1
  6
ByLayer
 10
104.0
 20
167.5000000000000853
 30
0.0
 11
169.0
 21
167.5
 31
0.0
  0
LINE
  5
6D
100
AcDbEntity
100
AcDbLine
  8
aux
 62
256
370
-1
  6
ByLayer
 10
104.0
 20
92.5000000000000142
 30
0.0
 11
169.0
 21
92.5000000000000142
 31
0.0
  0
CIRCLE
  5
6E
100
AcDbEntity
100
AcDbCircle
  8
0
 62
256
370
-1
  6
ByLayer
 10
336.5000000000000568
 20
165.5000000000002274
 30
0.0
 40
14.5
  0
CIRCLE
  5
6F
100
AcDbEntity
100
AcDbCircle
  8
0
 62
256
370
-1
  6
ByLayer
 10
336.5000000000000568
 20
237.5000000000006253
 30
0.0
 40
14.5
  0
CIRCLE
  5
70
100
AcDbEntity
100
AcDbCircle
  8
0
 62
256
370
-1
  6
ByLayer
 10
372.5000000000000568
 20
238.0000000000004263
 30
0.0
 40
14.5
  0
CIRCLE
  5
71
100
AcDbEntity
100
AcDbCircle
  8
0
 62
256
370
-1
  6
ByLayer
 10
336.5000000000000568
 20
129.5000000000002274
 30
0.0
 40
14.5
  0
CIRCLE
  5
72
100
AcDbEntity
100
AcDbCircle
  8
0
 62
256
370
-1
  6
ByLayer
 10
372.5000000000000568
 20
161.0
 30
0.0
 40
14.5
  0
CIRCLE
  5
73
100
AcDbEntity
100
AcDbCircle
  8
0
 62
256
370
-1
  6
ByLayer
 10
372.5
 20
125.0
 30
0.0
 40
14.5
  0
LINE
  5
74
100
AcDbEntity
100
AcDbLine
  8
aux
 62
256
370
-1
  6
ByLayer
 10
336.5000000000000568
 20
263.5000000000004547
 30
0.0
 11
336.5000000000000568
 21
93.5000000000004263
 31
0.0
  0
LINE
  5
75
100
AcDbEntity
100
AcDbLine
  8
aux
 62
256
370
-1
  6
ByLayer
 10
372.5000000000000568
 20
263.5000000000004547
 30
0.0
 11
372.5
 21
93.5000000000004263
 31
0.0
  0
LINE
  5
76
100
AcDbEntity
100
AcDbLine
  8
aux
 62
256
370
-1
  6
ByLayer
 10
300.5
 20
93.5000000000004263
 30
0.0
 11
300.5000000000000568
 21
263.5000000000004547
 31
0.0
  0
LINE
  5
77
100
AcDbEntity
100
AcDbLine
  8
aux
 62
256
370
-1
  6
ByLayer
 10
276.5000000000000568
 20
161.0
 30
0.0
 11
372.5
 21
161.0
 31
0.0
  0
LINE
  5
78
100
AcDbEntity
100
AcDbLine
  8
aux
 62
256
370
-1
  6
ByLayer
 10
396.5000000000000568
 20
161.0
 30
0.0
 11
276.5000000000000568
 21
161.0
 31
0.0
  0
LINE
  5
79
100
AcDbEntity
100
AcDbLine
  8
aux
 62
256
370
-1
  6
ByLayer
 10
396.5000000000000568
 20
125.0
 30
0.0
 11
276.5000000000000568
 21
125.0
 31
0.0
  0
CIRCLE
  5
7A
100
AcDbEntity
100
AcDbCircle
  8
0
 62
256
370
-1
  6
ByLayer
 10
300.5
 20
161.0
 30
0.0
 40
14.5
  0
CIRCLE
  5
7B
100
AcDbEntity
100
AcDbCircle
  8
0
 62
256
370
-1
  6
ByLayer
 10
300.5
 20
125.0
 30
0.0
 40
14.5
  0
LINE
  5
7C
100
AcDbEntity
100
AcDbLine
  8
aux
 62
256
370
-1
  6
ByLayer
 10
396.5000000000000568
 20
166.0
 30
0.0
 11
276.5000000000000568
 21
166.0
 31
0.0
  0
LINE
  5
7D
100
AcDbEntity
100
AcDbLine
  8
aux
 62
256
370
-1
  6
ByLayer
 10
396.5000000000000568
 20
130.0
 30
0.0
 11
276.5000000000000568
 21
130.0
 31
0.0
  0
LINE
  5
7E
100
AcDbEntity
100
AcDbLine
  8
aux
 62
256
370
-1
  6
ByLayer
 10
396.5000000000000568
 20
143.0
 30
0.0
 11
276.5000000000000568
 21
143.0
 31
0.0
  0
ARC
  5
7F
100
AcDbEntity
  8
0
 62
256
370
-1
  6
ByLayer
100
AcDbCircle
 10
408.0967128514054139
 20
-107.4694967633105307
 30
0.0
 40
30.0
100
AcDbArc
 50
95.0424510691709372
 51
180.0
  0
LINE
  5
80
100
AcDbEntity
100
AcDbLine
  8
0
 62
256
370
-1
  6
ByLayer
 10
405.4598985425147362
 20
-77.585601262549261
 30
0.0
 11
685.4598985425145656
 21
-52.8797189096080444
 31
0.0
  0
ARC
  5
81
100
AcDbEntity
  8
0
 62
256
370
-1
  6
ByLayer
100
AcDbCircle
 10
688.0967128514053002
 20
-82.7636144103695983
 30
0.0
 40
30.0
100
AcDbArc
 50
360.0
 51
95.0424510691709372
  0
ARC
  5
82
100
AcDbEntity
  8
0
 62
256
370
-1
  6
ByLayer
100
AcDbCircle
 10
388.0967128514054707
 20
-190.0000000000002558
 30
0.0
 40
10.0
100
AcDbArc
 50
180.0
 51
270.0
  0
ARC
  5
83
100
AcDbEntity
  8
0
 62
256
370
-1
  6
ByLayer
100
AcDbCircle
 10
708.0967128514053002
 20
-190.0000000000003126
 30
0.0
 40
10.0
100
AcDbArc
 50
270.0
 51
360.0
  0
LINE
  5
84
100
AcDbEntity
100
AcDbLine
  8
0
 62
256
370
-1
  6
ByLayer
 10
708.0967128514055275
 20
-199.9999999999999432
 30
0.0
 11
388.0967128514054707
 21
-200.0000000000003126
 31
0.0
  0
LINE
  5
85
100
AcDbEntity
100
AcDbLine
  8
0
 62
256
370
-1
  6
ByLayer
 10
378.0967128514054707
 20
-190.0000000000003126
 30
0.0
 11
378.0967128514054707
 21
-107.469496763310886
 31
0.0
  0
LINE
  5
86
100
AcDbEntity
100
AcDbLine
  8
0
 62
256
370
-1
  6
ByLayer
 10
718.0967128514053002
 20
-82.7636144103694278
 30
0.0
 11
718.0967128514053002
 21
-189.9999999999998295
 31
0.0
  0
LINE
  5
87
100
AcDbEntity
100
AcDbLine
  8
0
 62
256
370
-1
  6
ByLayer
 10
398.4305210215090369
 20
-102.4727587138768286
 30
0.0
 11
398.9229509680332058
 21
-108.1012587580954403
 31
0.0
  0
ARC
  5
88
100
AcDbEntity
  8
0
 62
256
370
-1
  6
ByLayer
100
AcDbCircle
 10
404.7563573543915254
 20
-101.9193197474292845
 30
0.0
 40
6.3499999999999996
100
AcDbArc
 50
94.9999999999999858
 51
185.0
  0
LINE
  5
89
100
AcDbEntity
100
AcDbLine
  8
0
 62
256
370
-1
  6
ByLayer
 10
690.4096551497023029
 20
-70.5536385231446275
 30
0.0
 11
404.2029183879438961
 21
-95.5934834145469665
 31
0.0
  0
LINE
  5
8A
100
AcDbEntity
100
AcDbLine
  8
0
 62
256
370
-1
  6
ByLayer
 10
697.7813603955569306
 20
-81.9545359337979988
 30
0.0
 11
697.2889304490327049
 21
-76.3260358895806093
 31
0.0
  0
ARC
  5
8B
100
AcDbEntity
  8
0
 62
256
370
-1
  6
ByLayer
100
AcDbCircle
 10
690.9630941161499322
 20
-76.8794748560265759
 30
0.0
 40
6.3499999999999996
100
AcDbArc
 50
4.999999999999992
 51
94.9999999999999858
  0
ARC
  5
8C
100
AcDbEntity
  8
0
 62
256
370
-1
  6
ByLayer
100
AcDbCircle
 10
400.4172430151708113
 20
-107.9705251439740152
 30
0.0
 40
1.5
100
AcDbArc
 50
185.0
 51
4.999999999999992
  0
LINE
  5
8D
100
AcDbEntity
100
AcDbLine
  8
0
 62
256
370
-1
  6
ByLayer
 10
401.9115350623084737
 20
-107.8397915298523628
 30
0.0
 11
694.7927763012817195
 21
-82.2160031620408489
 31
0.0
  0
ARC
  5
8E
100
AcDbEntity
  8
0
 62
256
370
-1
  6
ByLayer
100
AcDbCircle
 10
696.287068348419325
 20
-82.0852695479191681
 30
0.0
 40
1.5
100
AcDbArc
 50
185.0
 51
4.999999999999992
  0
ARC
  5
8F
100
AcDbEntity
  8
0
 62
256
370
-1
  6
ByLayer
100
AcDbCircle
 10
310.0
 20
-107.4694967633105307
 30
0.0
 40
30.0
100
AcDbArc
 50
0.0
 51
84.9575489308290486
  0
LINE
  5
90
100
AcDbEntity
100
AcDbLine
  8
0
 62
256
370
-1
  6
ByLayer
 10
312.6368143088907345
 20
-77.5856012625492326
 30
0.0
 11
32.6368143088907345
 21
-52.8797189096080729
 31
0.0
  0
ARC
  5
91
100
AcDbEntity
  8
0
 62
256
370
-1
  6
ByLayer
100
AcDbCircle
 10
30.0
 20
-82.7636144103695983
 30
0.0
 40
30.0
100
AcDbArc
 50
84.9575489308290486
 51
180.0
  0
ARC
  5
92
100
AcDbEntity
  8
0
 62
256
370
-1
  6
ByLayer
100
AcDbCircle
 10
329.9999999999999432
 20
-190.0000000000002558
 30
0.0
 40
10.0
100
AcDbArc
 50
270.0
 51
0.0
  0
ARC
  5
93
100
AcDbEntity
  8
0
 62
256
370
-1
  6
ByLayer
100
AcDbCircle
 10
10.0
 20
-190.0000000000001421
 30
0.0
 40
10.0
100
AcDbArc
 50
180.0
 51
270.0
  0
LINE
  5
94
100
AcDbEntity
100
AcDbLine
  8
0
 62
256
370
-1
  6
ByLayer
 10
9.9999999999999716
 20
-200.0000000000000284
 30
0.0
 11
329.9999999999999432
 21
-200.0000000000003126
 31
0.0
  0
LINE
  5
95
100
AcDbEntity
100
AcDbLine
  8
0
 62
256
370
-1
  6
ByLayer
 10
339.9999999999999432
 20
-190.0000000000003126
 30
0.0
 11
340.0
 21
-107.4694967633108718
 31
0.0
  0
LINE
  5
96
100
AcDbEntity
100
AcDbLine
  8
0
 62
256
370
-1
  6
ByLayer
 10
0.0
 20
-82.7636144103694846
 30
0.0
 11
0.0
 21
-190.0000000000001137
 31
0.0
  0
LINE
  5
97
100
AcDbEntity
100
AcDbLine
  8
0
 62
256
370
-1
  6
ByLayer
 10
319.6661918298964338
 20
-102.4727587138768001
 30
0.0
 11
319.1737618833722081
 21
-108.1012587580954403
 31
0.0
  0
ARC
  5
98
100
AcDbEntity
  8
0
 62
256
370
-1
  6
ByLayer
100
AcDbCircle
 10
313.3403554970138885
 20
-101.9193197474292703
 30
0.0
 40
6.3499999999999996
100
AcDbArc
 50
355.0
 51
85.0
  0
LINE
  5
99
100
AcDbEntity
100
AcDbLine
  8
0
 62
256
370
-1
  6
ByLayer
 10
27.6870577017030541
 20
-70.5536385231444854
 30
0.0
 11
313.8937944634615178
 21
-95.5934834145469665
 31
0.0
  0
LINE
  5
9A
100
AcDbEntity
100
AcDbLine
  8
0
 62
256
370
-1
  6
ByLayer
 10
20.3153524558485117
 20
-81.9545359337978141
 30
0.0
 11
20.8077824023726805
 21
-76.3260358895807371
 31
0.0
  0
ARC
  5
9B
100
AcDbEntity
  8
0
 62
256
370
-1
  6
ByLayer
100
AcDbCircle
 10
27.1336187352554532
 20
-76.8794748560265049
 30
0.0
 40
6.3499999999999996
100
AcDbArc
 50
85.0
 51
175.0
  0
ARC
  5
9C
100
AcDbEntity
  8
0
 62
256
370
-1
  6
ByLayer
100
AcDbCircle
 10
317.6794698362346026
 20
-107.9705251439740152
 30
0.0
 40
1.5
100
AcDbArc
 50
175.0
 51
355.0
  0
LINE
  5
9D
100
AcDbEntity
100
AcDbLine
  8
0
 62
256
370
-1
  6
ByLayer
 10
316.185177789096997
 20
-107.8397915298523344
 30
0.0
 11
23.3039365501237796
 21
-82.2160031620405789
 31
0.0
  0
ARC
  5
9E
100
AcDbEntity
  8
0
 62
256
370
-1
  6
ByLayer
100
AcDbCircle
 10
21.8096445029861172
 20
-82.0852695479190402
 30
0.0
 40
1.5
100
AcDbArc
 50
175.0
 51
355.0
  0
LWPOLYLINE
  5
9F
  8
0
 62
256
370
-1
  6
ByLayer
100
AcDbEntity
100
AcDbPolyline
 90
9
 70
0
 10
316.9999999999999432
 20
-180.0000000000002558
 10
22.9999999999999716
 20
-180.0
 42
0.9999999999999999
 10
19.9999999999998579
 20
-180.0
 10
19.9999999999999716
 20
-185.6499999999939803
 42
0.414213562372536
 10
26.3499999999999801
 20
-192.0000000000069349
 10
313.6499999999999204
 20
-192.0000000000002558
 42
0.4142135623729928
 10
320.0
 20
-185.6499999999979877
 10
320.0
 20
-179.9999999999997158
 42
0.9999999999999999
 10
317.0
 20
-179.9999999999997442
  0
LWPOLYLINE
  5
A0
  8
0
 62
256
370
-1
  6
ByLayer
100
AcDbEntity
100
AcDbPolyline
 90
9
 70
0
 10
401.0967128514054707
 20
-180.0000000000002842
 10
695.0967128514055275
 20
-180.0000000000003126
 42
-0.9999999999999999
 10
698.0967128514053002
 20
-180.0000000000003695
 10
698.0967128514055275
 20
-185.6499999999938666
 42
-0.4142135623725287
 10
691.7467128514055048
 20
-192.0000000000071338
 10
404.4467128514054934
 20
-192.0000000000002558
 42
-0.4142135623729928
 10
398.0967128514054139
 20
-185.6499999999979877
 10
398.0967128514054139
 20
-179.9999999999997442
 42
-0.9999999999999999
 10
401.0967128514054139
 20
-179.9999999999997726
  0
LWPOLYLINE
  5
A1
  8
0
 62
256
370
-1
  6
ByLayer
100
AcDbEntity
100
AcDbPolyline
 90
5
 70
0
 10
0.0
 20
640.0000000000002274
 10
1000.0
 20
640.0000000000002274
 10
1000.0
 20
339.9999999999997726
 10
0.0
 20
340.0
 10
0.0
 20
640.0000000000002274
  0
LWPOLYLINE
  5
A2
  8
0
 62
256
370
-1
  6
ByLayer
100
AcDbEntity
100
AcDbPolyline
 90
9
 70
0
 10
950.0
 20
559.9999999999997726
 10
950.0
 20
419.9999999999996589
 42
-0.414213562373094
 10
920.0
 20
389.9999999999994316
 10
80.0
 20
389.9999999999997726
 42
-0.414213562373094
 10
50.0
 20
419.9999999999998863
 10
50.0
 20
560.0
 42
-0.414213562373095
 10
80.0000000000002274
 20
590.0000000000002274
 10
920.0
 20
590.0
 42
-0.414213562373095
 10
950.0000000000002274
 20
559.9999999999997726
  0
LWPOLYLINE
  5
A3
  8
0
 62
256
370
-1
  6
ByLayer
100
AcDbEntity
100
AcDbPolyline
 90
9
 70
0
 10
947.0
 20
559.9999999999995453
 10
947.0
 20
419.9999999999996589
 42
-0.4142135623730963
 10
920.0000000000004547
 20
393.0000000000003411
 10
80.0
 20
392.9999999999997726
 42
-0.414213562373094
 10
52.9999999999999716
 20
419.9999999999998863
 10
53.0000000000002274
 20
560.0000000000002274
 42
-0.4142135623730953
 10
80.0000000000002274
 20
587.0000000000002274
 10
920.0
 20
587.0000000000001137
 42
-0.4142135623730925
 10
947.0
 20
559.9999999999998863
  0
LWPOLYLINE
  5
A4
  8
0
 62
256
370
-1
  6
ByLayer
100
AcDbEntity
100
AcDbPolyline
 90
5
 70
0
 10
0.0
 20
846.0
 10
1000.0
 20
846.0
 10
1000.0
 20
750.0
 10
0.0
 20
750.0
 10
0.0
 20
846.0
  0
LWPOLYLINE
  5
A5
  8
0
 62
256
370
-1
  6
ByLayer
100
AcDbEntity
100
AcDbPolyline
 90
5
 70
0
 10
1000.0
 20
733.0
 10
0.0
 20
733.0
 10
0.0
 20
660.0
 10
1000.0
 20
660.0
 10
1000.0
 20
733.0
  0
ENDSEC
  0
SECTION
  2
OBJECTS
  0
DICTIONARY
  5
C
100
AcDbDictionary
280
0
281
1
  3
ACAD_GROUP
350
D
  3
ACAD_LAYOUT
350
1A
  3
ACAD_MLINESTYLE
350
17
  3
ACAD_PLOTSETTINGS
350
19
  3
ACAD_PLOTSTYLENAME
350
E
  3
AcDbVariableDictionary
350
A6
  0
DICTIONARY
  5
D
100
AcDbDictionary
280
0
281
1
  0
ACDBDICTIONARYWDFLT
  5
E
100
AcDbDictionary
281
1
  3
Normal
350
F
100
AcDbDictionaryWithDefault
340
F
  0
ACDBPLACEHOLDER
  5
F
  0
DICTIONARY
  5
17
100
AcDbDictionary
280
0
281
1
  3
Standard
350
18
  0
MLINESTYLE
  5
18
100
AcDbMlineStyle
  2
STANDARD
 70
0
  3

 62
256
 51
90.0
 52
90.0
 71
2
 49
0.5
 62
256
  6
BYLAYER
 49
-0.5
 62
256
  6
BYLAYER
  0
DICTIONARY
  5
19
100
AcDbDictionary
280
0
281
1
  0
DICTIONARY
  5
1A
100
AcDbDictionary
281
1
  3
Layout1
350
1E
  3
Layout2
350
26
  3
Model
350
22
  0
LAYOUT
  5
1E
100
AcDbPlotSettings
  1

  2
C:\Program Files\AutoCAD 2002\plotters\DWF ePlot (optimized for plotting).pc3
  4

  6

 40
0.0
 41
0.0
 42
0.0
 43
0.0
 44
0.0
 45
0.0
 46
0.0
 47
0.0
 48
0.0
 49
0.0
140
0.0
141
0.0
142
1.0
143
1.0
 70
688
 72
0
 73
0
 74
5
  7

 75
16
147
1.0
148
0.0
149
0.0
100
AcDbLayout
  1
Layout1
 70
1
 71
1
 10
0.0
 20
0.0
 11
420.0
 21
297.0
 12
0.0
 22
0.0
 32
0.0
 14
100000000000000000000.0
 24
100000000000000000000.0
 34
100000000000000000000.0
 15
-100000000000000000000.0
 25
-100000000000000000000.0
 35
-100000000000000000000.0
146
0.0
 13
0.0
 23
0.0
 33
0.0
 16
1.0
 26
0.0
 36
0.0
 17
0.0
 27
1.0
 37
0.0
 76
0
330
1B
  0
LAYOUT
  5
22
100
AcDbPlotSettings
  1

  2
C:\Program Files\AutoCAD 2002\plotters\DWF ePlot (optimized for plotting).pc3
  4

  6

 40
0.0
 41
0.0
 42
0.0
 43
0.0
 44
0.0
 45
0.0
 46
0.0
 47
0.0
 48
0.0
 49
0.0
140
0.0
141
0.0
142
1.0
143
1.0
 70
1712
 72
0
 73
0
 74
0
  7

 75
0
147
1.0
148
0.0
149
0.0
100
AcDbLayout
  1
Model
 70
1
 71
0
 10
0.0
 20
0.0
 11
12.0
 21
9.0
 12
0.0
 22
0.0
 32
0.0
 14
0.0
 24
0.0
 34
0.0
 15
0.0
 25
0.0
 35
0.0
146
0.0
 13
0.0
 23
0.0
 33
0.0
 16
1.0
 26
0.0
 36
0.0
 17
0.0
 27
1.0
 37
0.0
 76
0
330
1F
  0
LAYOUT
  5
26
100
AcDbPlotSettings
  1

  2
C:\Program Files\AutoCAD 2002\plotters\DWF ePlot (optimized for plotting).pc3
  4

  6

 40
0.0
 41
0.0
 42
0.0
 43
0.0
 44
0.0
 45
0.0
 46
0.0
 47
0.0
 48
0.0
 49
0.0
140
0.0
141
0.0
142
1.0
143
1.0
 70
688
 72
0
 73
0
 74
5
  7

 75
16
147
1.0
148
0.0
149
0.0
100
AcDbLayout
  1
Layout2
 70
1
 71
2
 10
0.0
 20
0.0
 11
12.0
 21
9.0
 12
0.0
 22
0.0
 32
0.0
 14
0.0
 24
0.0
 34
0.0
 15
0.0
 25
0.0
 35
0.0
146
0.0
 13
0.0
 23
0.0
 33
0.0
 16
1.0
 26
0.0
 36
0.0
 17
0.0
 27
1.0
 37
0.0
 76
0
330
23
  0
DICTIONARY
  5
A6
100
AcDbDictionary
281
1
  3
DIMASSOC
350
A8
  3
HIDETEXT
350
A7
  0
DICTIONARYVAR
  5
A7
100
DictionaryVariables
280
0
  1
2
  0
DICTIONARYVAR
  5
A8
100
DictionaryVariables
280
0
  1
1
  0
ENDSEC
  0
EOF
